<svg width="18" height="32" viewBox="0 0 18 32" fill="none" xmlns="http://www.w3.org/2000/svg">
<path d="M17.0789 21.8331C17.0789 23.0034 16.7863 24.125 16.2011 25.1977C15.616 26.2705 14.7383 27.1604 13.568 27.8674C12.4221 28.5501 11.0446 28.9402 9.43543 29.0377V32H7.68V29.0377C5.41257 28.8427 3.57181 28.1356 2.15771 26.9166C0.768 25.6975 0.0609524 24.125 0.0365715 22.1989H3.584C3.68152 23.2472 4.07162 24.1493 4.75429 24.9051C5.43695 25.661 6.41219 26.1242 7.68 26.2949V17.1886C5.97333 16.7253 4.62019 16.2865 3.62057 15.872C2.62095 15.4575 1.76762 14.787 1.06057 13.8606C0.353524 12.9341 0 11.6785 0 10.0937C0 8.09448 0.694857 6.44876 2.08457 5.15657C3.49867 3.86438 5.36381 3.15733 7.68 3.03543V0H9.43543V3.03543C11.5566 3.2061 13.251 3.86438 14.5189 5.01029C15.811 6.15619 16.5547 7.66781 16.7497 9.54514H13.2023C13.0804 8.69181 12.6903 7.91162 12.032 7.20457C11.3981 6.49752 10.5326 6.04648 9.43543 5.85143V14.7383C11.1177 15.1771 12.4587 15.6038 13.4583 16.0183C14.4579 16.4328 15.3112 17.1032 16.0183 18.0297C16.7253 18.9562 17.0789 20.224 17.0789 21.8331ZM3.40114 9.91086C3.40114 11.1299 3.76686 12.0564 4.49829 12.6903C5.22971 13.3242 6.29029 13.8484 7.68 14.2629V5.77829C6.36343 5.85143 5.31505 6.24152 4.53486 6.94857C3.77905 7.65562 3.40114 8.64305 3.40114 9.91086ZM9.43543 26.3314C10.7764 26.2095 11.8248 25.7463 12.5806 24.9417C13.3608 24.1371 13.7509 23.1619 13.7509 22.016C13.7509 20.797 13.373 19.8705 12.6171 19.2366C11.8857 18.5783 10.8251 18.0541 9.43543 17.664V26.3314Z" fill="#6941C6"/>
</svg>
