<svg width="20" height="18" viewBox="0 0 20 18" fill="none" xmlns="http://www.w3.org/2000/svg">
<path fill-rule="evenodd" clip-rule="evenodd" d="M9.59242 0C7.02424 0 6.70221 0.0103605 5.6936 0.0541601C4.6871 0.0978521 3.99969 0.250008 3.3982 0.472506C2.77637 0.702472 2.24902 1.01021 1.72328 1.51055C1.19758 2.01092 0.874237 2.51283 0.632614 3.10466C0.398836 3.67712 0.238967 4.33137 0.19306 5.28931C0.14704 6.24926 0.136154 6.55575 0.136154 9.00002C0.136154 11.4443 0.14704 11.7507 0.19306 12.7107C0.238967 13.6686 0.398836 14.3229 0.632614 14.8953C0.874237 15.4872 1.19758 15.9891 1.72328 16.4895C2.24902 16.9898 2.77637 17.2975 3.3982 17.5275C3.99969 17.75 4.6871 17.9021 5.6936 17.9458C6.70221 17.9896 7.02424 18 9.59242 18C12.1606 18 12.4826 17.9896 13.4912 17.9458C14.4977 17.9021 15.1851 17.75 15.7866 17.5275C16.4084 17.2975 16.9358 16.9898 17.4615 16.4895C17.9872 15.9891 18.3106 15.4872 18.5522 14.8953C18.786 14.3229 18.9458 13.6686 18.9917 12.7107C19.0378 11.7507 19.0487 11.4443 19.0487 9.00002C19.0487 6.55575 19.0378 6.24926 18.9917 5.28931C18.9458 4.33137 18.786 3.67712 18.5522 3.10466C18.3106 2.51283 17.9872 2.01092 17.4615 1.51055C16.9358 1.01021 16.4084 0.702472 15.7866 0.472506C15.1851 0.250008 14.4977 0.0978521 13.4912 0.0541601C12.4826 0.0103605 12.1606 0 9.59242 0ZM9.59242 1.62162C12.1173 1.62162 12.4164 1.6308 13.4135 1.6741C14.3355 1.71411 14.8362 1.86073 15.1694 1.98398C15.6108 2.14725 15.9258 2.34227 16.2567 2.65723C16.5876 2.97215 16.7926 3.27196 16.9641 3.69206C17.0936 4.00919 17.2476 4.48574 17.2897 5.36323C17.3352 6.31224 17.3448 6.5969 17.3448 9.00002C17.3448 11.4031 17.3352 11.6878 17.2897 12.6368C17.2476 13.5143 17.0936 13.9908 16.9641 14.3079C16.7926 14.728 16.5876 15.0278 16.2567 15.3428C15.9258 15.6577 15.6108 15.8528 15.1694 16.016C14.8362 16.1393 14.3355 16.2859 13.4135 16.3259C12.4166 16.3692 12.1175 16.3784 9.59242 16.3784C7.06729 16.3784 6.76828 16.3692 5.77127 16.3259C4.84929 16.2859 4.34859 16.1393 4.01538 16.016C3.57398 15.8528 3.25898 15.6577 2.92809 15.3428C2.5972 15.0278 2.39225 14.728 2.22071 14.3079C2.09121 13.9908 1.93716 13.5143 1.89512 12.6368C1.84963 11.6878 1.83998 11.4031 1.83998 9.00002C1.83998 6.5969 1.84963 6.31224 1.89512 5.36323C1.93716 4.48574 2.09121 4.00919 2.22071 3.69206C2.39225 3.27196 2.59717 2.97215 2.92809 2.65723C3.25898 2.34227 3.57398 2.14725 4.01538 1.98398C4.34859 1.86073 4.84929 1.71411 5.77127 1.6741C6.76839 1.6308 7.06748 1.62162 9.59242 1.62162ZM4.73649 9.00002C4.73649 6.44753 6.91054 4.37838 9.59242 4.37838C12.2743 4.37838 14.4483 6.44753 14.4483 9.00002C14.4483 11.5525 12.2743 13.6216 9.59242 13.6216C6.91054 13.6216 4.73649 11.5525 4.73649 9.00002ZM9.59242 12C7.85155 12 6.44032 10.6569 6.44032 9.00002C6.44032 7.34314 7.85155 6 9.59242 6C11.3333 6 12.7445 7.34314 12.7445 9.00002C12.7445 10.6569 11.3333 12 9.59242 12ZM14.6402 5.27577C15.2669 5.27577 15.7749 4.79226 15.7749 4.19579C15.7749 3.59931 15.2669 3.11577 14.6402 3.11577C14.0135 3.11577 13.5054 3.59931 13.5054 4.19579C13.5054 4.79226 14.0135 5.27577 14.6402 5.27577Z" fill="white"/>
</svg>
