<svg width="205" height="57" viewBox="0 0 205 57" fill="none" xmlns="http://www.w3.org/2000/svg">
<path d="M10.3364 55.6081H0V3.96191H10.3364V24.6348H30.9733V3.96191H41.3097V55.6081H30.9733V34.9712H10.3364V55.6081Z" fill="white"/>
<path d="M59.7857 55.6081H49.8814V17.0355H59.7857V55.6081Z" fill="white"/>
<path d="M97.4218 55.6081H65.26L81.503 26.9038H65.26V17.1076H97.4218L81.1789 45.8119H97.4218V55.6081Z" fill="white"/>
<path d="M138.407 55.6081H126.378L118.707 43.795L110.964 55.6081H98.9345L113.017 35.8356L98.9345 16.8194H110.964L118.707 27.8762L126.378 16.8194H138.407L124.289 35.8356L138.407 55.6081Z" fill="white"/>
<path d="M155.623 46.172C156.007 46.2921 156.391 46.3761 156.775 46.4241C157.159 46.4481 157.544 46.4601 157.928 46.4601C158.888 46.4601 159.813 46.3281 160.701 46.064C161.589 45.7999 162.418 45.4277 163.186 44.9475C163.978 44.4433 164.675 43.843 165.275 43.1467C165.899 42.4264 166.403 41.6341 166.788 40.7697L173.991 48.0088C173.078 49.3054 172.022 50.4699 170.821 51.5023C169.645 52.5348 168.36 53.4111 166.968 54.1314C165.599 54.8517 164.146 55.392 162.61 55.7521C161.097 56.1363 159.536 56.3284 157.928 56.3284C155.215 56.3284 152.658 55.8242 150.257 54.8157C147.879 53.8073 145.791 52.4027 143.99 50.6019C142.213 48.8012 140.808 46.6642 139.776 44.1912C138.744 41.6941 138.227 38.9569 138.227 35.9797C138.227 32.9303 138.744 30.1452 139.776 27.6241C140.808 25.103 142.213 22.9541 143.99 21.1773C145.791 19.4005 147.879 18.0199 150.257 17.0355C152.658 16.0511 155.215 15.5589 157.928 15.5589C159.536 15.5589 161.109 15.751 162.646 16.1351C164.182 16.5193 165.635 17.0715 167.004 17.7918C168.396 18.5122 169.693 19.4005 170.893 20.457C172.094 21.4894 173.15 22.6539 174.063 23.9505L155.623 46.172ZM160.665 25.8953C160.209 25.7273 159.753 25.6192 159.296 25.5712C158.864 25.5232 158.408 25.4992 157.928 25.4992C156.583 25.4992 155.311 25.7513 154.11 26.2555C152.934 26.7357 151.901 27.432 151.013 28.3444C150.148 29.2568 149.464 30.3612 148.96 31.6578C148.456 32.9303 148.204 34.371 148.204 35.9797C148.204 36.3398 148.216 36.748 148.24 37.2042C148.288 37.6604 148.348 38.1286 148.42 38.6088C148.516 39.065 148.624 39.5092 148.744 39.9414C148.864 40.3735 149.02 40.7577 149.212 41.0938L160.665 25.8953Z" fill="white"/>
<path d="M188.865 55.6081H179.033V17.0355H181.41L184.651 21.6095C186.236 20.1689 188.037 19.0644 190.054 18.2961C192.07 17.5037 194.159 17.1076 196.32 17.1076H205V26.9038H196.32C195.288 26.9038 194.315 27.0958 193.403 27.48C192.491 27.8642 191.698 28.3924 191.026 29.0647C190.354 29.737 189.826 30.5293 189.441 31.4417C189.057 32.3541 188.865 33.3265 188.865 34.359V55.6081Z" fill="white"/>
<path d="M60.9383 9.11191C61.2984 8.31957 61.4785 7.46721 61.4785 6.55481C61.4785 5.66643 61.2984 4.82607 60.9383 4.03373C60.6021 3.21738 60.1339 2.52108 59.5337 1.94483C58.9334 1.34458 58.2251 0.876376 57.4088 0.540232C56.6164 0.180077 55.7641 0 54.8517 0C53.9393 0 53.0749 0.180077 52.2585 0.540232C51.4662 0.876376 50.7699 1.34458 50.1697 1.94483C49.5934 2.52108 49.1252 3.21738 48.7651 4.03373C48.4289 4.82607 48.2608 5.66643 48.2608 6.55481C48.2608 7.46721 48.4289 8.31957 48.7651 9.11191C49.1252 9.90425 49.5934 10.6006 50.1697 11.2008C50.7699 11.7771 51.4662 12.2453 52.2585 12.6054C53.0749 12.9416 53.9393 13.1096 54.8517 13.1096C55.7641 13.1096 56.6164 12.9416 57.4088 12.6054C58.2251 12.2453 58.9334 11.7771 59.5337 11.2008C60.1339 10.6006 60.6021 9.90425 60.9383 9.11191Z" fill="white"/>
</svg>
