<svg width="31" height="34" viewBox="0 0 31 34" fill="none" xmlns="http://www.w3.org/2000/svg">
<path d="M4.09014 26.0295H4.08847C4.07427 26.0293 4.05983 26.0291 4.04511 26.0287L4.04928 25.8787L4.04547 26.0287C2.23594 25.9827 0.806098 24.479 0.85103 22.6697V17.7211C0.85103 15.8696 2.25179 14.2443 4.09014 14.2443H4.41535V12.4538C4.41535 6.13721 9.53586 1.01663 15.8525 1.01663C22.1691 1.01663 27.2896 6.13721 27.2896 12.4538V14.2453C28.229 14.2708 29.0157 14.801 29.566 15.5264C30.1296 16.2693 30.4579 17.2315 30.4579 18.1169V23.0674C30.4579 23.876 30.1771 24.5691 29.6658 25.0751C29.1698 25.566 28.4668 25.871 27.6192 25.944L26.9072 26.9933L26.9031 26.9993L26.903 26.9992C25.4124 28.9815 23.0877 30.1574 20.6124 30.1872C20.4785 30.8867 20.1418 31.5326 19.6429 32.0435L19.6429 32.0436C18.8637 32.841 17.8012 33.2984 16.6866 33.3165L16.6841 33.3165C14.43 33.3166 12.5962 31.5013 12.5737 29.2472L12.5737 29.2445C12.5889 27.322 13.9471 25.6722 15.8309 25.2881C17.9933 24.847 20.1048 26.2088 20.6066 28.3426C22.44 28.3154 24.1641 27.4656 25.3022 26.0294H24.6841H24.6773L24.6773 26.0292C24.6715 26.029 24.6657 26.0287 24.6599 26.0283C24.6477 26.0275 24.6356 26.0264 24.6235 26.0251C24.1306 25.9724 23.7731 25.5323 23.8213 25.0401V15.3448C23.8213 15.0802 23.8979 14.8119 24.0411 14.6057C24.1854 14.3979 24.4054 14.2443 24.6841 14.2443H25.4054V12.4537C25.4054 7.17775 21.1284 2.90071 15.8525 2.90071C10.5766 2.90071 6.29951 7.17775 6.29951 12.4537V14.2443H7.02081C7.29962 14.2443 7.51953 14.398 7.66382 14.6058C7.80701 14.812 7.88367 15.0803 7.88367 15.3448V25.0401L4.09014 26.0295ZM4.09014 26.0295H7.02081V26.0296L7.02784 26.0293C7.52565 26.0059 7.91027 25.5834 7.88693 25.0856L4.09014 26.0295ZM18.2798 30.7251L18.2798 30.7252C18.6619 30.3339 18.8621 29.8002 18.8315 29.2542L18.831 29.2458H18.8312V29.244L18.2798 30.7251ZM18.2798 30.7251L18.2769 30.7283M18.2798 30.7251L18.2769 30.7283M18.2769 30.7283C17.8665 31.1732 17.2901 31.4282 16.6849 31.4325M18.2769 30.7283L16.6849 31.4325M16.6849 31.4325C15.4779 31.4124 14.4986 30.4496 14.458 29.2433C14.4588 28.0368 15.4369 27.0587 16.6437 27.0582C17.8513 27.0577 18.8307 28.0363 18.8312 29.2439L16.6849 31.4325ZM2.73501 22.6788L2.73519 22.6788V22.6715V17.721C2.73519 16.8658 3.32652 16.1284 4.09014 16.1284H5.99951V24.1453H4.09203C3.32287 24.1256 2.71482 23.4867 2.73355 22.7173L2.5836 22.7137L2.73354 22.7177C2.73389 22.7048 2.73438 22.6918 2.73501 22.6788ZM28.5738 23.0676C28.5738 23.5414 28.3518 23.8008 28.0775 23.9508C27.7923 24.1068 27.445 24.1453 27.2188 24.1453H25.7054V16.1285H27.2188C27.5796 16.1285 27.916 16.3846 28.1714 16.7867C28.4245 17.185 28.5738 17.6919 28.5738 18.1171V23.0676Z" fill="#6941C6" stroke="#6941C6" stroke-width="0.3"/>
</svg>
