<svg width="40" height="41" viewBox="0 0 40 41" fill="none" xmlns="http://www.w3.org/2000/svg">
  <g clip-path="url(#clip0_2_30)">
    <path d="M35.8333 20.5831C35.1433 20.5831 34.5833 20.0231 34.5833 19.3331C34.5833 11.2914 28.0417 4.74976 20 4.74976C11.9583 4.74976 5.41666 11.2914 5.41666 19.3331C5.41666 20.0231 4.85666 20.5831 4.16666 20.5831C3.47666 20.5831 2.91666 20.0231 2.91666 19.3331C2.91666 9.91309 10.58 2.24976 20 2.24976C29.42 2.24976 37.0833 9.91309 37.0833 19.3331C37.0833 20.0231 36.5233 20.5831 35.8333 20.5831Z" fill="#6941C6" />
    <path d="M5.41667 6.83317H1.25C0.56 6.83317 0 6.27317 0 5.58317V1.4165C0 0.726504 0.56 0.166504 1.25 0.166504H5.41667C6.10667 0.166504 6.66667 0.726504 6.66667 1.4165V5.58317C6.66667 6.27317 6.10667 6.83317 5.41667 6.83317ZM2.5 4.33317H4.16667V2.6665H2.5V4.33317Z" fill="#6941C6" />
    <path d="M35.8333 25.1664C33.995 25.1664 32.5 23.6714 32.5 21.8331C32.5 19.9948 33.995 18.4998 35.8333 18.4998C37.6717 18.4998 39.1667 19.9948 39.1667 21.8331C39.1667 23.6714 37.6717 25.1664 35.8333 25.1664ZM35.8333 20.9998C35.3733 20.9998 35 21.3731 35 21.8331C35 22.2931 35.3733 22.6664 35.8333 22.6664C36.2933 22.6664 36.6667 22.2931 36.6667 21.8331C36.6667 21.3731 36.2933 20.9998 35.8333 20.9998Z" fill="#6941C6" />
    <path d="M34.1667 4.74976H5.83334C5.14334 4.74976 4.58334 4.18976 4.58334 3.49976C4.58334 2.80976 5.14334 2.24976 5.83334 2.24976H34.1667C34.8567 2.24976 35.4167 2.80976 35.4167 3.49976C35.4167 4.18976 34.8567 4.74976 34.1667 4.74976Z" fill="#6941C6" />
    <path d="M22.9267 27.6666C22.6833 27.6666 22.4383 27.5966 22.2233 27.4483C21.6533 27.0599 21.5067 26.2816 21.8967 25.7116L25.6633 20.1966L20 7.0716L14.3367 20.1966L18.1033 25.7116C18.4933 26.2816 18.3467 27.0599 17.7767 27.4483C17.2083 27.8383 16.4283 27.6933 16.04 27.1216L11.885 21.0383C11.6433 20.6849 11.6 20.2316 11.77 19.8383L18.8533 3.4216C19.2483 2.5066 20.7533 2.5066 21.1483 3.4216L28.2317 19.8383C28.4017 20.2316 28.3583 20.6849 28.1167 21.0383L23.9617 27.1216C23.7183 27.4766 23.3267 27.6666 22.9267 27.6666Z" fill="#6941C6" />
    <path d="M27.0817 40.1665C26.465 40.1665 25.9283 39.7098 25.8433 39.0815L24.37 28.0282C24.3433 27.8215 24.165 27.6665 23.9567 27.6665H16.0417C15.8333 27.6665 15.6567 27.8215 15.6283 28.0282L14.155 39.0815C14.0633 39.7665 13.425 40.2415 12.75 40.1565C12.065 40.0648 11.585 39.4365 11.675 38.7515L13.1483 27.6982C13.345 26.2548 14.5867 25.1665 16.0417 25.1665H23.9567C25.4117 25.1665 26.655 26.2548 26.8467 27.6965L28.3217 38.7515C28.4133 39.4365 27.9317 40.0648 27.2467 40.1565C27.1917 40.1632 27.1367 40.1665 27.0817 40.1665Z" fill="#6941C6" />
    <path d="M20 18.4998C19.31 18.4998 18.75 17.9398 18.75 17.2498V4.74976C18.75 4.05976 19.31 3.49976 20 3.49976C20.69 3.49976 21.25 4.05976 21.25 4.74976V17.2498C21.25 17.9398 20.69 18.4998 20 18.4998Z" fill="#6941C6" />
    <path d="M4.16667 25.1664C2.32834 25.1664 0.833336 23.6714 0.833336 21.8331C0.833336 19.9948 2.32834 18.4998 4.16667 18.4998C6.005 18.4998 7.5 19.9948 7.5 21.8331C7.5 23.6714 6.005 25.1664 4.16667 25.1664ZM4.16667 20.9998C3.70667 20.9998 3.33334 21.3731 3.33334 21.8331C3.33334 22.2931 3.70667 22.6664 4.16667 22.6664C4.62667 22.6664 5 22.2931 5 21.8331C5 21.3731 4.62667 20.9998 4.16667 20.9998Z" fill="#6941C6" />
    <path d="M38.75 6.83317H34.5833C33.8933 6.83317 33.3333 6.27317 33.3333 5.58317V1.4165C33.3333 0.726504 33.8933 0.166504 34.5833 0.166504H38.75C39.44 0.166504 40 0.726504 40 1.4165V5.58317C40 6.27317 39.44 6.83317 38.75 6.83317ZM35.8333 4.33317H37.5V2.6665H35.8333V4.33317Z" fill="#6941C6" />
  </g>
  <defs>
    <clipPath id="clip0_2_30">
      <rect width="40" height="40" fill="white" transform="translate(0 0.166504)" />
    </clipPath>
  </defs>
</svg>