<svg width="62" height="41" viewBox="0 0 62 41" fill="none" xmlns="http://www.w3.org/2000/svg">
<path d="M9.52029 32.8336L9.5204 32.8336C9.5836 32.8426 9.6453 32.8465 9.70544 32.8465C10.3345 32.8465 10.885 32.3847 10.9777 31.7429L10.9777 31.7427C11.078 31.0393 10.5906 30.3871 9.88695 30.2855L9.88693 30.2855C7.40624 29.9282 5.02708 29.1508 2.8181 27.9715L2.81783 27.9713C2.18781 27.6383 1.41223 27.8762 1.07659 28.5012L1.07647 28.5014C0.74205 29.1291 0.980002 29.9086 1.6064 30.243L1.60645 30.243C4.08036 31.5614 6.74387 32.4326 9.52029 32.8336Z" fill="white" stroke="white" stroke-width="0.15"/>
<path d="M51.5898 31.744L51.5898 31.7441C51.6825 32.3848 52.233 32.8465 52.862 32.8465C52.9222 32.8465 52.9834 32.8426 53.0456 32.835L53.0456 32.835L53.0472 32.8348C55.8236 32.4338 58.4871 31.5626 60.961 30.2442L60.9611 30.2442C61.5875 29.9098 61.8255 29.1291 61.491 28.5026L61.4909 28.5024C61.1552 27.8774 60.3809 27.6396 59.7497 27.9725L59.7494 27.9727C57.5404 29.152 55.1624 29.9294 52.6806 30.2867L52.6805 30.2867C51.9769 30.3883 51.4895 31.0405 51.5898 31.744Z" fill="white" stroke="white" stroke-width="0.15"/>
<path d="M39.4907 21.7641L39.4908 21.7642C39.7067 21.9042 39.9499 21.9725 40.1918 21.9725C40.6133 21.9725 41.0252 21.7668 41.271 21.3884C42.523 19.4655 44.6409 18.3179 46.9364 18.3179C47.6477 18.3179 48.2227 17.7429 48.2227 17.0316C48.2227 16.3203 47.6477 15.7453 46.9364 15.7453C43.7689 15.7453 40.8454 17.3304 39.1151 19.9838C38.7266 20.5794 38.8952 21.3757 39.4907 21.7641Z" fill="white" stroke="white" stroke-width="0.15"/>
<path d="M41.626 10.3234C41.626 14.6577 45.2862 18.3179 49.6218 18.3179C53.9561 18.3179 57.6163 14.6577 57.6163 10.3234C57.6163 5.98906 53.9561 2.32881 49.6218 2.32881C45.2862 2.32881 41.626 5.98905 41.626 10.3234ZM44.1986 10.3234C44.1986 7.38499 46.6833 4.90144 49.6218 4.90144C52.5602 4.90144 55.0437 7.38497 55.0437 10.3234C55.0437 13.2618 52.5602 15.7453 49.6218 15.7453C46.6833 15.7453 44.1986 13.2618 44.1986 10.3234Z" fill="white" stroke="white" stroke-width="0.15"/>
<path d="M59.069 25.0832C59.069 25.7945 59.6441 26.3695 60.3554 26.3695C61.0667 26.3695 61.6417 25.7933 61.6417 25.0832C61.6417 19.9361 57.4533 15.7465 52.305 15.7465C51.5937 15.7465 51.0187 16.3216 51.0187 17.0328C51.0187 17.7441 51.5937 18.3192 52.305 18.3192C56.0344 18.3192 59.069 21.3538 59.069 25.0832Z" fill="white" stroke="white" stroke-width="0.15"/>
<path d="M46.9377 18.3179H52.305C53.015 18.3179 53.5913 17.743 53.5913 17.0316C53.5913 16.3203 53.0163 15.7453 52.305 15.7453H46.9377C46.2264 15.7453 45.6513 16.3203 45.6513 17.0316C45.6513 17.7429 46.2264 18.3179 46.9377 18.3179Z" fill="white" stroke="white" stroke-width="0.15"/>
<path d="M59.0691 29.1083C59.0691 29.8196 59.6441 30.3947 60.3554 30.3947C61.0667 30.3947 61.6417 29.8196 61.6417 29.1083V25.0831C61.6417 24.3719 61.0667 23.7968 60.3554 23.7968C59.6441 23.7968 59.0691 24.3719 59.0691 25.0831V29.1083Z" fill="white" stroke="white" stroke-width="0.15"/>
<path d="M15.6858 30.0024C15.6858 30.7137 16.2608 31.2887 16.9721 31.2887C17.6821 31.2887 18.2584 30.7137 18.2584 30.0024C18.2584 24.7928 22.4959 20.5552 27.7055 20.5552C28.4168 20.5552 28.9919 19.9802 28.9919 19.2689C28.9919 18.5577 28.4168 17.9826 27.7055 17.9826C21.0782 17.9826 15.6858 23.3738 15.6858 30.0024Z" fill="white" stroke="white" stroke-width="0.15"/>
<path d="M27.7057 20.5552H34.8621C35.5734 20.5552 36.1484 19.9802 36.1484 19.2689C36.1484 18.5577 35.5734 17.9826 34.8621 17.9826H27.7057C26.9944 17.9826 26.4194 18.5577 26.4194 19.2689C26.4194 19.9802 26.9944 20.5552 27.7057 20.5552Z" fill="white" stroke="white" stroke-width="0.15"/>
<path d="M21.2967 21.3885L21.2967 21.3885C21.5437 21.7667 21.9554 21.9725 22.3758 21.9725C22.6166 21.9725 22.8596 21.9042 23.0766 21.7643L23.0769 21.7641C23.6724 21.3757 23.841 20.5794 23.4525 19.9838C21.7222 17.3304 18.7999 15.7453 15.6312 15.7453C14.9199 15.7453 14.3449 16.3203 14.3449 17.0316C14.3449 17.7429 14.9199 18.3179 15.6312 18.3179C17.9267 18.3179 20.0434 19.4668 21.2967 21.3885Z" fill="white" stroke="white" stroke-width="0.15"/>
<path d="M15.6858 35.3697C15.6858 36.0809 16.2608 36.656 16.9721 36.656C17.6821 36.656 18.2584 36.081 18.2584 35.3697V30.0023C18.2584 29.2911 17.6834 28.716 16.9721 28.716C16.2608 28.716 15.6858 29.2911 15.6858 30.0023V35.3697Z" fill="white" stroke="white" stroke-width="0.15"/>
<path d="M21.0518 10.3234C21.0518 15.8702 25.7368 20.5552 31.2837 20.5552C36.8305 20.5552 41.5155 15.8702 41.5155 10.3234C41.5155 4.77653 36.8305 0.0915039 31.2837 0.0915039C25.7368 0.0915039 21.0518 4.77653 21.0518 10.3234ZM23.6244 10.3234C23.6244 6.17243 27.1327 2.66413 31.2837 2.66413C35.4346 2.66413 38.9429 6.17243 38.9429 10.3234C38.9429 14.4743 35.4346 17.9826 31.2837 17.9826C27.1327 17.9826 23.6244 14.4743 23.6244 10.3234Z" fill="white" stroke="white" stroke-width="0.15"/>
<path d="M44.3092 30.0024C44.3092 30.7137 44.8843 31.2887 45.5956 31.2887C46.3068 31.2887 46.8819 30.7137 46.8819 30.0024C46.8819 23.3751 41.4907 17.9826 34.8621 17.9826C34.1508 17.9826 33.5758 18.5577 33.5758 19.2689C33.5758 19.9802 34.1508 20.5552 34.8621 20.5552C40.0717 20.5552 44.3092 24.7928 44.3092 30.0024Z" fill="white" stroke="white" stroke-width="0.15"/>
<path d="M44.3091 35.3697C44.3091 36.0809 44.8842 36.656 45.5954 36.656C46.3067 36.656 46.8818 36.0809 46.8818 35.3697V30.0023C46.8818 29.2911 46.3067 28.716 45.5954 28.716C44.8842 28.716 44.3091 29.2911 44.3091 30.0023V35.3697Z" fill="white" stroke="white" stroke-width="0.15"/>
<path d="M16.366 36.5054L16.3662 36.5055C21.0371 38.9957 26.1597 40.2415 31.2837 40.2415C36.4076 40.2415 41.5302 38.9945 46.2023 36.5055L46.2025 36.5054C46.8287 36.1698 47.0668 35.3904 46.7323 34.7638L46.7323 34.7638C46.3978 34.1386 45.6209 33.9008 44.991 34.2338L44.9907 34.2339C36.4088 38.8118 26.1609 38.8118 17.5778 34.2339L17.5775 34.2338C16.9463 33.9008 16.172 34.1387 15.8363 34.7637L15.8362 34.7639C15.5017 35.3917 15.7398 36.1698 16.366 36.5054Z" fill="white" stroke="white" stroke-width="0.15"/>
<path d="M4.95115 10.3234C4.95115 14.6577 8.61141 18.3179 12.9457 18.3179C17.28 18.3179 20.9403 14.6577 20.9403 10.3234C20.9403 5.98906 17.28 2.32881 12.9457 2.32881C8.61141 2.32881 4.95115 5.98906 4.95115 10.3234ZM7.52378 10.3234C7.52378 7.38497 10.0073 4.90144 12.9457 4.90144C15.8841 4.90144 18.3677 7.38497 18.3677 10.3234C18.3677 13.2618 15.8841 15.7453 12.9457 15.7453C10.0073 15.7453 7.52378 13.2618 7.52378 10.3234Z" fill="white" stroke="white" stroke-width="0.15"/>
<path d="M10.2627 18.3192H10.2627C10.974 18.3192 11.5491 17.7441 11.5491 17.0328C11.5491 16.3216 10.974 15.7465 10.2627 15.7465C5.11564 15.7465 0.926038 19.9349 0.926038 25.0832C0.926038 25.7945 1.50107 26.3695 2.21235 26.3695C2.92368 26.3695 3.49866 25.7933 3.49866 25.0832C3.49866 21.3526 6.53335 18.318 10.2627 18.3192Z" fill="white" stroke="white" stroke-width="0.15"/>
<path d="M10.2626 18.3179H15.6299C16.3412 18.3179 16.9162 17.7429 16.9162 17.0316C16.9162 16.3203 16.3412 15.7453 15.6299 15.7453H10.2626C9.55127 15.7453 8.97624 16.3203 8.97624 17.0316C8.97624 17.7429 9.55127 18.3179 10.2626 18.3179Z" fill="white" stroke="white" stroke-width="0.15"/>
<path d="M0.926038 29.1083C0.926038 29.8196 1.50107 30.3947 2.21235 30.3947C2.92363 30.3947 3.49867 29.8196 3.49867 29.1083V25.0831C3.49867 24.3719 2.92363 23.7968 2.21235 23.7968C1.50107 23.7968 0.926038 24.3719 0.926038 25.0831V29.1083Z" fill="white" stroke="white" stroke-width="0.15"/>
</svg>
