<svg width="20" height="18" viewBox="0 0 20 18" fill="none" xmlns="http://www.w3.org/2000/svg">
<path fill-rule="evenodd" clip-rule="evenodd" d="M17.7556 12.2598L15.0868 11.9698C14.4459 11.8998 13.8155 12.1098 13.3637 12.5398L11.4304 14.3798C8.45693 12.9398 6.01932 10.6298 4.50632 7.78977L6.4501 5.93977C6.9019 5.50977 7.12255 4.90977 7.049 4.29977L6.7443 1.77977C6.61821 0.769766 5.72512 0.00976562 4.65342 0.00976562H2.83571C1.64843 0.00976562 0.660776 0.949766 0.734324 2.07977C1.29119 10.6198 8.46744 17.4398 17.4299 17.9698C18.6171 18.0398 19.6048 17.0998 19.6048 15.9698V14.2398C19.6153 13.2298 18.8168 12.3798 17.7556 12.2598Z" fill="white"/>
</svg>
