<svg width="40" height="41" viewBox="0 0 40 41" fill="none" xmlns="http://www.w3.org/2000/svg">
<g clip-path="url(#clip0_2_21)">
<path d="M37.0833 30.1664H2.91667C1.30833 30.1664 0 28.8581 0 27.2498V6.41642C0 4.80809 1.30833 3.49976 2.91667 3.49976H37.0833C38.6917 3.49976 40 4.80809 40 6.41642V27.2498C40 28.8581 38.6917 30.1664 37.0833 30.1664ZM2.91667 5.99976C2.68667 5.99976 2.5 6.18642 2.5 6.41642V27.2498C2.5 27.4798 2.68667 27.6664 2.91667 27.6664H37.0833C37.3133 27.6664 37.5 27.4798 37.5 27.2498V6.41642C37.5 6.18642 37.3133 5.99976 37.0833 5.99976H2.91667Z" fill="#6941C6"/>
<path d="M27.0833 36.8333H12.9167C12.2267 36.8333 11.6667 36.2733 11.6667 35.5833C11.6667 34.8933 12.2267 34.3333 12.9167 34.3333H27.0833C27.7733 34.3333 28.3333 34.8933 28.3333 35.5833C28.3333 36.2733 27.7733 36.8333 27.0833 36.8333Z" fill="#6941C6"/>
<path d="M20 36.8332C19.31 36.8332 18.75 36.2732 18.75 35.5832V28.9165C18.75 28.2265 19.31 27.6665 20 27.6665C20.69 27.6665 21.25 28.2265 21.25 28.9165V35.5832C21.25 36.2732 20.69 36.8332 20 36.8332Z" fill="#6941C6"/>
<path d="M11.25 23.4999C10.93 23.4999 10.61 23.3782 10.3667 23.1332C9.87834 22.6449 9.87834 21.8532 10.3667 21.3649L14.8983 16.8332L10.3667 12.2999C9.87834 11.8115 9.87834 11.0199 10.3667 10.5315C10.855 10.0432 11.6467 10.0432 12.135 10.5315L17.5517 15.9482C18.04 16.4365 18.04 17.2282 17.5517 17.7165L12.135 23.1332C11.89 23.3782 11.57 23.4999 11.25 23.4999Z" fill="#6941C6"/>
<path d="M28.75 23.4998H21.25C20.56 23.4998 20 22.9398 20 22.2498C20 21.5598 20.56 20.9998 21.25 20.9998H28.75C29.44 20.9998 30 21.5598 30 22.2498C30 22.9398 29.44 23.4998 28.75 23.4998Z" fill="#6941C6"/>
</g>
<defs>
<clipPath id="clip0_2_21">
<rect width="40" height="40" fill="white" transform="translate(0 0.166504)"/>
</clipPath>
</defs>
</svg>
