<svg width="28" height="33" viewBox="0 0 28 33" fill="none" xmlns="http://www.w3.org/2000/svg">
<path d="M19.2692 17.4846V17.4912H24.5529L21.6071 13.0663L19.2692 17.4846ZM19.2692 17.4846H19.1192M19.2692 17.4846H19.1192M19.1192 17.4846C17.8362 17.4846 16.7949 16.4433 16.7949 15.1604V7.55782M19.1192 17.4846L16.7949 7.55782M16.7949 7.55782H24.5529L21.6071 11.9828L16.7949 7.55782ZM27.1884 17.9217L27.1879 17.9209L23.5881 12.5212L27.1869 7.12303C27.187 7.12279 27.1872 7.12254 27.1874 7.1223C27.3907 6.82448 27.4059 6.43458 27.2345 6.12221C27.0631 5.80346 26.7355 5.60833 26.3769 5.60833H16.6799C16.238 3.7195 14.5375 2.30936 12.5212 2.30936H5.57843V1.30472C5.57843 0.766622 5.14179 0.32998 4.60369 0.32998C4.06559 0.32998 3.62895 0.766622 3.62895 1.30472V30.6805H1.30472C0.766622 30.6805 0.32998 31.1171 0.32998 31.6552C0.32998 32.1933 0.766622 32.63 1.30472 32.63H7.90266C8.44076 32.63 8.8774 32.1933 8.8774 31.6552C8.8774 31.1171 8.44076 30.6805 7.90266 30.6805H5.57843V16.1351H14.9605C15.4024 18.024 17.1029 19.4341 19.1192 19.4341H26.3769C26.7357 19.4341 27.0636 19.2387 27.2348 18.9196C27.4067 18.5993 27.3828 18.2172 27.1884 17.9217ZM5.57843 4.25885H12.5212C13.8041 4.25885 14.8454 5.30014 14.8454 6.58307V14.1857H5.57843V4.25885ZM21.6071 11.9828C21.3888 12.3103 21.3888 12.7387 21.6071 13.0662V11.9828Z" fill="#6941C6" stroke="#6941C6" stroke-width="0.3"/>
</svg>
