<svg width="20" height="13" viewBox="0 0 20 13" fill="none" xmlns="http://www.w3.org/2000/svg">
<path fill-rule="evenodd" clip-rule="evenodd" d="M18.8911 0.969787C19.4579 1.53063 19.6429 2.80424 19.6429 2.80424C19.6429 2.80424 19.832 4.30022 19.832 5.79562V7.19803C19.832 8.69401 19.6429 10.1894 19.6429 10.1894C19.6429 10.1894 19.4579 11.463 18.8911 12.0239C18.2431 12.6873 17.5246 12.7559 17.1184 12.7946C17.0738 12.7989 17.0329 12.8028 16.9963 12.8071C14.3497 12.9942 10.3757 13 10.3757 13C10.3757 13 5.45848 12.9561 3.94548 12.814C3.87379 12.8009 3.7869 12.7907 3.68849 12.7792C3.20923 12.723 2.45701 12.6348 1.85979 12.0239C1.293 11.463 1.1086 10.1894 1.1086 10.1894C1.1086 10.1894 0.919479 8.69401 0.919479 7.19803V5.79562C0.919479 4.30022 1.1086 2.80424 1.1086 2.80424C1.1086 2.80424 1.293 1.53063 1.85979 0.969787C2.50923 0.305384 3.22843 0.237575 3.63459 0.19928C3.67863 0.195128 3.71898 0.191323 3.75517 0.187142C6.40174 0 10.3716 0 10.3716 0H10.3799C10.3799 0 14.3497 0 16.9963 0.187142C17.0325 0.191329 17.0728 0.195139 17.1169 0.199298C17.5228 0.237597 18.2423 0.305492 18.8911 0.969787ZM8.42242 3.70414L8.42301 8.89732L13.5323 6.30968L8.42242 3.70414Z" fill="white"/>
</svg>
