<svg width="20" height="18" viewBox="0 0 20 18" fill="none" xmlns="http://www.w3.org/2000/svg">
<path d="M10.6713 18H1.61334C1.03669 18 0.569519 17.5551 0.569519 17.0065V0.993454C0.569519 0.444694 1.03676 0 1.61334 0H18.4383C19.0147 0 19.482 0.444694 19.482 0.993454V17.0065C19.482 17.5552 19.0146 18 18.4383 18H13.6189V11.0294H16.0772L16.4453 8.31284H13.6189V6.57849C13.6189 5.79198 13.8483 5.256 15.0334 5.256L16.5448 5.25537V2.82566C16.2834 2.79255 15.3862 2.71859 14.3424 2.71859C12.1632 2.71859 10.6713 3.98457 10.6713 6.30945V8.31284H8.20667V11.0294H10.6713V18Z" fill="white"/>
</svg>
