<svg width="20" height="11" viewBox="0 0 20 11" fill="none" xmlns="http://www.w3.org/2000/svg">
<path fill-rule="evenodd" clip-rule="evenodd" d="M9.60709 6.58628C8.66741 6.58628 6.35961 6.58911 6.35961 6.58911V4.41089H12.1285C12.5303 7.04653 11.3183 11 6.35961 11C3.04214 11 0.352814 8.53753 0.352814 5.5C0.352814 2.46242 3.04214 0 6.35961 0C7.91627 0 9.33459 0.542158 10.4017 1.43152C9.57478 2.14656 9.30968 2.41914 9.08443 2.65073C8.96726 2.77121 8.86087 2.88059 8.6918 3.0354C8.07453 2.56801 7.40159 2.23267 6.35961 2.23267C4.38885 2.23267 2.85069 3.69551 2.85069 5.5C2.85069 7.30449 4.38885 8.76733 6.35961 8.76733C8.30701 8.76733 9.09824 7.99836 9.60709 6.58628ZM17.1837 2.61386V4.5198H19.2653V5.88119H17.1837V7.84158H15.6969V5.88119H13.5559V4.5198H15.6969V2.61386H17.1837Z" fill="white"/>
</svg>
