<svg width="205" height="54" viewBox="0 0 205 54" fill="none" xmlns="http://www.w3.org/2000/svg">
<path d="M10.3364 52.6081H0V0.961914H10.3364V21.6348H30.9733V0.961914H41.3097V52.6081H30.9733V31.9712H10.3364V52.6081Z" fill="white"/>
<path d="M59.7857 52.6081H49.8814V14.0355H59.7857V52.6081Z" fill="white"/>
<path d="M97.4218 52.6081H65.26L81.503 23.9038H65.26V14.1076H97.4218L81.1789 42.8119H97.4218V52.6081Z" fill="white"/>
<path d="M138.407 52.6081H126.378L118.707 40.795L110.964 52.6081H98.9345L113.017 32.8356L98.9345 13.8194H110.964L118.707 24.8762L126.378 13.8194H138.407L124.289 32.8356L138.407 52.6081Z" fill="white"/>
<path d="M155.623 43.172C156.007 43.2921 156.391 43.3761 156.775 43.4241C157.159 43.4481 157.544 43.4601 157.928 43.4601C158.888 43.4601 159.813 43.3281 160.701 43.064C161.589 42.7999 162.418 42.4277 163.186 41.9475C163.978 41.4433 164.675 40.843 165.275 40.1467C165.899 39.4264 166.403 38.6341 166.788 37.7697L173.991 45.0088C173.078 46.3054 172.022 47.4699 170.821 48.5023C169.645 49.5348 168.36 50.4111 166.968 51.1314C165.599 51.8517 164.146 52.392 162.61 52.7521C161.097 53.1363 159.536 53.3284 157.928 53.3284C155.215 53.3284 152.658 52.8242 150.257 51.8157C147.879 50.8073 145.791 49.4027 143.99 47.6019C142.213 45.8012 140.808 43.6642 139.776 41.1912C138.744 38.6941 138.227 35.9569 138.227 32.9797C138.227 29.9303 138.744 27.1452 139.776 24.6241C140.808 22.103 142.213 19.9541 143.99 18.1773C145.791 16.4005 147.879 15.0199 150.257 14.0355C152.658 13.0511 155.215 12.5589 157.928 12.5589C159.536 12.5589 161.109 12.751 162.646 13.1351C164.182 13.5193 165.635 14.0715 167.004 14.7918C168.396 15.5122 169.693 16.4005 170.893 17.457C172.094 18.4894 173.15 19.6539 174.063 20.9505L155.623 43.172ZM160.665 22.8953C160.209 22.7273 159.753 22.6192 159.296 22.5712C158.864 22.5232 158.408 22.4992 157.928 22.4992C156.583 22.4992 155.311 22.7513 154.11 23.2555C152.934 23.7357 151.901 24.432 151.013 25.3444C150.148 26.2568 149.464 27.3612 148.96 28.6578C148.456 29.9303 148.204 31.371 148.204 32.9797C148.204 33.3398 148.216 33.748 148.24 34.2042C148.288 34.6604 148.348 35.1286 148.42 35.6088C148.516 36.065 148.624 36.5092 148.744 36.9414C148.864 37.3735 149.02 37.7577 149.212 38.0938L160.665 22.8953Z" fill="white"/>
<path d="M188.865 52.6081H179.033V14.0355H181.41L184.651 18.6095C186.236 17.1689 188.037 16.0644 190.054 15.2961C192.07 14.5037 194.159 14.1076 196.32 14.1076H205V23.9038H196.32C195.288 23.9038 194.315 24.0958 193.403 24.48C192.491 24.8642 191.698 25.3924 191.026 26.0647C190.354 26.737 189.825 27.5293 189.441 28.4417C189.057 29.3541 188.865 30.3265 188.865 31.359V52.6081Z" fill="white"/>
</svg>
