<svg width="45" height="41" viewBox="0 0 45 41" fill="none" xmlns="http://www.w3.org/2000/svg">
<path d="M22.4978 0.166504C22.4827 0.166504 22.4691 0.166504 22.4555 0.166504C18.6667 0.166504 15.1011 1.64313 12.4148 4.32789C9.71796 7.02171 8.23229 10.6009 8.23229 14.4108C8.23229 17.9222 9.52641 21.2932 11.8778 23.8965C13.3364 25.5134 14.1388 27.6658 14.1388 29.9599C14.1388 31.7955 15.2474 33.3731 16.8266 34.073V35.2796C16.8266 37.9734 19.0181 40.1665 21.7119 40.1665H23.2383C25.9321 40.1665 28.1237 37.9734 28.1237 35.2796V34.073C29.7029 33.3731 30.8115 31.7955 30.8115 29.9599C30.8115 27.6658 31.6139 25.5149 33.0724 23.8965C35.4238 21.2917 36.718 17.9222 36.718 14.4108C36.718 10.6024 35.2323 7.02322 32.5355 4.32789C29.8462 1.64463 26.2806 0.166504 22.4978 0.166504ZM23.2368 37.4501H21.7104C20.5143 37.4501 19.5415 36.4757 19.5415 35.2796V34.4621H25.4073V35.2796C25.4057 36.4757 24.4329 37.4501 23.2368 37.4501ZM31.0558 22.079C29.1448 24.1937 28.0935 26.9931 28.0935 29.9599C28.0935 30.9448 27.2926 31.7472 26.3062 31.7472H18.638C17.6531 31.7472 16.8507 30.9463 16.8507 29.9599C16.8507 26.9931 15.7994 24.1952 13.8884 22.079C11.9895 19.9734 10.9442 17.251 10.9442 14.4108C10.9442 11.3279 12.1463 8.43046 14.3288 6.24946C16.5038 4.07902 19.3876 2.88445 22.457 2.88445C22.4721 2.88596 22.4827 2.88596 22.4902 2.88445C25.5536 2.88445 28.4374 4.07902 30.6139 6.24946C32.7964 8.43046 33.9985 11.3279 33.9985 14.4108C34.0015 17.2495 32.9548 19.9719 31.0558 22.079Z" fill="#6941C6"/>
<path d="M20.2382 5.72468C17.3211 6.4743 14.9199 8.71714 13.9667 11.5814C13.7314 12.2933 14.116 13.061 14.8264 13.2993C14.9697 13.3461 15.113 13.3687 15.2548 13.3687C15.8234 13.3687 16.3543 13.0082 16.5428 12.4396C17.205 10.4426 18.8807 8.87852 20.9109 8.35665C21.6364 8.16963 22.0738 7.43056 21.8882 6.70356C21.7027 5.97656 20.9637 5.54972 20.2382 5.72468Z" fill="#6941C6"/>
<path d="M4.55817 5.27202C3.93826 4.84668 3.09362 5.00807 2.67129 5.62647C2.24897 6.24487 2.40734 7.08951 3.02574 7.51335L5.06194 8.9055C5.29573 9.06538 5.56269 9.1423 5.82665 9.1423C6.25953 9.1423 6.68487 8.93416 6.94882 8.54955C7.37114 7.93114 7.21277 7.0865 6.59437 6.66267L4.55817 5.27202Z" fill="#6941C6"/>
<path d="M5.15083 14.6748C5.15083 13.9252 4.54299 13.3174 3.79336 13.3174H1.35747C0.607843 13.3174 0 13.9252 0 14.6748C0 15.4245 0.607843 16.0323 1.35747 16.0323H3.79186C4.54148 16.0338 5.15083 15.4245 5.15083 14.6748Z" fill="#6941C6"/>
<path d="M5.06172 20.4455L3.02552 21.8362C2.40712 22.2585 2.24724 23.1047 2.67107 23.7231C2.93351 24.1077 3.36036 24.3158 3.79324 24.3158C4.05719 24.3158 4.32416 24.2389 4.55795 24.079L6.59415 22.6884C7.21255 22.2661 7.37243 21.4199 6.9486 20.8015C6.52476 20.1831 5.68012 20.0187 5.06172 20.4455Z" fill="#6941C6"/>
<path d="M39.1207 9.14223C39.3846 9.14223 39.6516 9.06531 39.8854 8.90543L41.9216 7.51328C42.54 7.08944 42.6998 6.2448 42.276 5.6264C41.8522 5.008 41.0075 4.8451 40.3891 5.27195L38.3529 6.6641C37.7345 7.08794 37.5746 7.93258 37.9985 8.55098C38.2624 8.9356 38.6878 9.14223 39.1207 9.14223Z" fill="#6941C6"/>
<path d="M43.5896 13.3174H41.1553C40.4056 13.3174 39.7978 13.9252 39.7978 14.6748C39.7978 15.4245 40.4056 16.0323 41.1553 16.0323H43.5896C44.3393 16.0323 44.9471 15.4245 44.9471 14.6748C44.9471 13.9252 44.3393 13.3174 43.5896 13.3174Z" fill="#6941C6"/>
<path d="M39.8853 20.4456C39.2669 20.0203 38.4192 20.1817 37.9984 20.8001C37.5761 21.4185 37.7345 22.2646 38.3529 22.6869L40.3891 24.0776C40.6228 24.2375 40.8898 24.3144 41.1538 24.3144C41.5866 24.3144 42.0135 24.1062 42.2759 23.7216C42.6983 23.1032 42.5399 22.2571 41.9215 21.8347L39.8853 20.4456Z" fill="#6941C6"/>
</svg>
