<svg width="16" height="20" viewBox="0 0 16 20" fill="none" xmlns="http://www.w3.org/2000/svg">
<path fill-rule="evenodd" clip-rule="evenodd" d="M0.804193 7C0.804193 3.13 4.09287 0 8.15905 0C12.2252 0 15.5139 3.13 15.5139 7C15.5139 11.17 10.8698 16.92 8.96809 19.11C8.54781 19.59 7.7808 19.59 7.36053 19.11C5.44826 16.92 0.804193 11.17 0.804193 7ZM5.53232 7C5.53232 8.38 6.7091 9.5 8.15905 9.5C9.60901 9.5 10.7858 8.38 10.7858 7C10.7858 5.62 9.60901 4.5 8.15905 4.5C6.7091 4.5 5.53232 5.62 5.53232 7Z" fill="white"/>
</svg>
