<svg width="32" height="32" viewBox="0 0 32 32" fill="none" xmlns="http://www.w3.org/2000/svg">
<g clip-path="url(#clip0_1_730)">
<path d="M31 22.3332H1C0.448 22.3332 0 21.8852 0 21.3332V14.3332C0 12.3105 1.644 10.6665 3.66667 10.6665H28.3333C30.356 10.6665 32 12.3105 32 14.3332V21.3332C32 21.8852 31.552 22.3332 31 22.3332ZM2 20.3332H30V14.3332C30 13.4145 29.252 12.6665 28.3333 12.6665H3.66667C2.748 12.6665 2 13.4145 2 14.3332V20.3332Z" fill="#6941C6"/>
<path d="M28.3333 32.0002H3.66667C1.644 32.0002 0 30.3562 0 28.3335V21.3335C0 20.7815 0.448 20.3335 1 20.3335H31C31.552 20.3335 32 20.7815 32 21.3335V28.3335C32 30.3562 30.356 32.0002 28.3333 32.0002ZM2 22.3335V28.3335C2 29.2522 2.748 30.0002 3.66667 30.0002H28.3333C29.252 30.0002 30 29.2522 30 28.3335V22.3335H2Z" fill="#6941C6"/>
<path d="M23.3333 7.99993C23.14 7.99993 22.9467 7.94393 22.7787 7.83193L19.7787 5.83193C19.3187 5.52527 19.1947 4.90527 19.5013 4.44527C19.808 3.9866 20.428 3.86127 20.888 4.16793L23.3333 5.7986L25.7787 4.16793C26.2373 3.85993 26.8587 3.98527 27.1653 4.44527C27.472 4.90527 27.348 5.52527 26.888 5.83193L23.888 7.83193C23.72 7.94393 23.5267 7.99993 23.3333 7.99993Z" fill="#6941C6"/>
<path d="M28.3333 12.6667H3.66667C1.644 12.6667 0 11.0227 0 9V3.66667C0 1.644 1.644 0 3.66667 0H28.3333C30.356 0 32 1.644 32 3.66667V9C32 11.0227 30.356 12.6667 28.3333 12.6667ZM3.66667 2C2.748 2 2 2.748 2 3.66667V9C2 9.91867 2.748 10.6667 3.66667 10.6667H28.3333C29.252 10.6667 30 9.91867 30 9V3.66667C30 2.748 29.252 2 28.3333 2H3.66667Z" fill="#6941C6"/>
<path d="M16.3333 12.6667C15.7813 12.6667 15.3333 12.2187 15.3333 11.6667V1C15.3333 0.448 15.7813 0 16.3333 0C16.8853 0 17.3333 0.448 17.3333 1V11.6667C17.3333 12.2187 16.8853 12.6667 16.3333 12.6667Z" fill="#6941C6"/>
<path d="M25.3333 17.3332C24.5987 17.3332 24 16.7345 24 15.9998C24 15.2652 24.5987 14.6665 25.3333 14.6665C26.068 14.6665 26.6667 15.2652 26.6667 15.9998C26.6667 16.7345 26.068 17.3332 25.3333 17.3332Z" fill="#6941C6"/>
<path d="M25.3333 28.0002C24.5987 28.0002 24 27.4015 24 26.6668C24 25.9322 24.5987 25.3335 25.3333 25.3335C26.068 25.3335 26.6667 25.9322 26.6667 26.6668C26.6667 27.4015 26.068 28.0002 25.3333 28.0002Z" fill="#6941C6"/>
</g>
<defs>
<clipPath id="clip0_1_730">
<rect width="32" height="32" fill="white"/>
</clipPath>
</defs>
</svg>
