<svg width="20" height="18" viewBox="0 0 20 18" fill="none" xmlns="http://www.w3.org/2000/svg">
<path d="M10.243 0C5.02082 0 0.786163 4.02928 0.786163 9.00053C0.786163 12.6848 3.11478 15.8515 6.44757 17.2433C6.42088 16.6156 6.44312 15.8599 6.61104 15.1762C6.79342 14.4459 7.82761 10.2727 7.82761 10.2727C7.82761 10.2727 7.52625 9.69801 7.52625 8.84812C7.52625 7.51455 8.33915 6.51861 9.35 6.51861C10.2096 6.51861 10.6255 7.13353 10.6255 7.87017C10.6255 8.69254 10.0739 9.92344 9.79037 11.0633C9.5535 12.0191 10.293 12.797 11.2827 12.797C13.0742 12.797 14.2808 10.6072 14.2808 8.012C14.2808 6.04022 12.8852 4.56377 10.3464 4.56377C7.47843 4.56377 5.69138 6.59905 5.69138 8.87246C5.69138 9.65779 5.93381 10.2103 6.31413 10.6379C6.48983 10.8358 6.51318 10.9141 6.44979 11.1406C6.40531 11.3046 6.30078 11.7047 6.25741 11.8624C6.19402 12.09 6.00053 12.1725 5.78479 12.0878C4.46257 11.5745 3.84762 10.1976 3.84762 8.64914C3.84762 6.09314 6.11285 3.02593 10.6055 3.02593C14.2163 3.02593 16.5927 5.5142 16.5927 8.18239C16.5927 11.7132 14.531 14.3507 11.4896 14.3507C10.4698 14.3507 9.50902 13.8257 9.17986 13.2298C9.17986 13.2298 8.63051 15.3032 8.51486 15.7033C8.31469 16.3965 7.92214 17.0908 7.56295 17.6306C8.41366 17.8698 9.31219 18 10.243 18C15.4651 18 19.6987 13.9707 19.6987 9.00053C19.6987 4.02928 15.4651 0 10.243 0Z" fill="white"/>
</svg>
