<svg width="19" height="18" viewBox="0 0 19 18" fill="none" xmlns="http://www.w3.org/2000/svg">
<path fill-rule="evenodd" clip-rule="evenodd" d="M18.9153 18H15.3132C15.3132 9.96493 8.44534 3.42836 0.00303082 3.42836V0C10.4311 0 18.9153 8.07493 18.9153 18ZM0.00303082 15.4286C0.00303082 14.0085 1.21274 12.8571 2.70479 12.8571C4.19683 12.8571 5.40654 14.0085 5.40654 15.4286C5.40654 16.8486 4.19683 18 2.70479 18C1.21274 18 0.00303082 16.8486 0.00303082 15.4286ZM9.00914 18H12.6113C12.6113 11.3831 6.95513 5.99979 0.00283813 5.99979V9.42879C4.96867 9.42879 9.00914 13.2737 9.00914 18Z" fill="white"/>
</svg>
