<svg width="31" height="34" viewBox="0 0 31 34" fill="none" xmlns="http://www.w3.org/2000/svg">
<path d="M4.09014 25.8628H4.08848C4.07427 25.8627 4.05982 25.8624 4.04511 25.862L4.04928 25.7121L4.04547 25.862C2.23594 25.8161 0.806098 24.3124 0.85103 22.5031V17.5545C0.85103 15.7029 2.25179 14.0777 4.09014 14.0777H4.41535V12.2871C4.41535 5.97058 9.53586 0.85 15.8525 0.85C22.1691 0.85 27.2896 5.97058 27.2896 12.2871V14.0787C28.229 14.1041 29.0157 14.6344 29.566 15.3598C30.1296 16.1026 30.4579 17.0649 30.4579 17.9503V22.9008C30.4579 23.7094 30.1771 24.4025 29.6658 24.9084C29.1698 25.3994 28.4668 25.7044 27.6192 25.7774L26.9072 26.8266L26.9031 26.8327L26.903 26.8326C25.4124 28.8148 23.0877 29.9908 20.6124 30.0206C20.4785 30.7201 20.1418 31.366 19.6429 31.8769L19.6429 31.877C18.8637 32.6743 17.8012 33.1318 16.6866 33.1498L16.6841 33.1499C14.43 33.15 12.5962 31.3346 12.5737 29.0806L12.5737 29.0779C12.5889 27.1554 13.9471 25.5056 15.8309 25.1214C17.9933 24.6804 20.1048 26.0421 20.6066 28.176C22.44 28.1488 24.1641 27.2989 25.3022 25.8628H24.6841H24.6773L24.6773 25.8626C24.6594 25.8618 24.6414 25.8604 24.6234 25.8585C24.1306 25.8058 23.7732 25.3657 23.8213 24.8735V15.1782C23.8213 14.9136 23.8979 14.6453 24.0411 14.4391C24.1854 14.2313 24.4054 14.0776 24.6841 14.0776H25.4054V12.2871C25.4054 7.01113 21.1284 2.73408 15.8525 2.73408C10.5766 2.73408 6.29951 7.01113 6.29951 12.2871V14.0776H7.02081C7.29962 14.0776 7.51953 14.2314 7.66382 14.4391C7.80701 14.6454 7.88367 14.9137 7.88367 15.1782V24.8735L4.09014 25.8628ZM4.09014 25.8628H7.02081V25.863L7.02784 25.8627C7.52565 25.8393 7.91027 25.4168 7.88693 24.919L4.09014 25.8628ZM18.2798 30.5585L18.2798 30.5585C18.6619 30.1673 18.8621 29.6336 18.8315 29.0876L18.831 29.0792H18.8312V29.0773L18.2798 30.5585ZM18.2798 30.5585L18.2769 30.5616M18.2798 30.5585L18.2769 30.5616M18.2769 30.5616C17.8665 31.0066 17.2901 31.2616 16.6849 31.2658M18.2769 30.5616L16.6849 31.2658M16.6849 31.2658C15.4779 31.2458 14.4986 30.283 14.458 29.0767C14.4588 27.8701 15.4369 26.8921 16.6437 26.8916C17.8513 26.8911 18.8307 27.8696 18.8312 29.0773L16.6849 31.2658ZM2.73501 22.5121L2.73519 22.5121V22.5049V17.5544C2.73519 16.6991 3.32652 15.9618 4.09014 15.9618H5.99951V23.9787H4.09203C3.32287 23.959 2.71482 23.3201 2.73355 22.5507L2.5836 22.547L2.73354 22.5511C2.73389 22.5381 2.73438 22.5252 2.73501 22.5121ZM28.5738 22.901C28.5738 23.3748 28.3518 23.6342 28.0775 23.7842C27.7923 23.9402 27.445 23.9787 27.2188 23.9787H25.7054V15.9619H27.2188C27.5796 15.9619 27.916 16.218 28.1714 16.62C28.4245 17.0183 28.5738 17.5253 28.5738 17.9505V22.901Z" fill="#6941C6" stroke="#6941C6" stroke-width="0.3"/>
</svg>
