<svg width="20" height="15" viewBox="0 0 20 15" fill="none" xmlns="http://www.w3.org/2000/svg">
<path d="M19.6153 1.77573C18.9204 2.07692 18.1722 2.28061 17.3874 2.37161C18.1888 1.90358 18.8038 1.16143 19.0936 0.277356C18.3431 0.710726 17.5139 1.026 16.6281 1.19502C15.9221 0.459372 14.913 0 13.7962 0C11.6549 0 9.91761 1.69556 9.91761 3.78657C9.91761 4.08342 9.95091 4.37161 10.0175 4.64897C6.79273 4.49079 3.93426 2.98483 2.01936 0.691224C1.68523 1.25244 1.49429 1.90358 1.49429 2.59697C1.49429 3.91008 2.17922 5.06934 3.22047 5.74865C2.58551 5.73023 1.98606 5.55796 1.4621 5.27627V5.32286C1.4621 7.15818 2.79975 8.68906 4.57589 9.03575C4.25063 9.12459 3.90762 9.16901 3.5535 9.16901C3.30373 9.16901 3.05951 9.14626 2.82306 9.10184C3.31705 10.6056 4.74906 11.701 6.44749 11.7302C5.11983 12.7465 3.44582 13.3521 1.62861 13.3521C1.31557 13.3521 1.00586 13.3348 0.702805 13.3001C2.4201 14.3727 4.46044 15 6.65063 15C13.7885 15 17.6904 9.23077 17.6904 4.22644C17.6904 4.06176 17.6871 3.89707 17.6804 3.73564C18.4386 3.20152 19.0969 2.53521 19.6153 1.77573Z" fill="white"/>
</svg>
