<?xml version="1.0" encoding="utf-8"?><svg viewBox="0 0 205 57" xmlns="http://www.w3.org/2000/svg" xmlns:xlink="http://www.w3.org/1999/xlink"><style>:root>svg{display:none}:root>svg:target{display:block}</style><svg viewBox="0 0 32 32" id="arrow" xmlns="http://www.w3.org/2000/svg"><path clip-rule="evenodd" d="M32 16.009c0-.267-.11-.522-.293-.714l-9.899-9.999a.993.993 0 00-1.414 0 1.016 1.016 0 000 1.428l8.193 8.275H1c-.552 0-1 .452-1 1.01s.448 1.01 1 1.01h27.586l-8.192 8.275a1.017 1.017 0 000 1.428.994.994 0 001.414 0l9.899-9.999c.187-.189.29-.449.293-.714z"/></svg><svg viewBox="0 0 18 32" id="dollar" xmlns="http://www.w3.org/2000/svg"><path d="M17.079 21.833c0 1.17-.293 2.292-.878 3.365-.585 1.072-1.463 1.962-2.633 2.67-1.146.682-2.523 1.072-4.133 1.17V32H7.68v-2.962c-2.267-.195-4.108-.902-5.522-2.121C.768 25.697.06 24.125.037 22.199h3.547c.098 1.048.488 1.95 1.17 2.706.683.756 1.658 1.22 2.926 1.39v-9.106c-1.707-.464-3.06-.902-4.06-1.317-.999-.415-1.852-1.085-2.56-2.011C.355 12.934 0 11.678 0 10.094c0-2 .695-3.645 2.085-4.937 1.414-1.293 3.279-2 5.595-2.122V0h1.755v3.035c2.122.171 3.816.83 5.084 1.975 1.292 1.146 2.036 2.658 2.23 4.535h-3.547c-.122-.853-.512-1.633-1.17-2.34-.634-.707-1.5-1.159-2.597-1.354v8.887c1.683.44 3.024.866 4.023 1.28 1 .415 1.853 1.085 2.56 2.012.707.926 1.06 2.194 1.06 3.803zM3.4 9.911c0 1.219.366 2.145 1.097 2.78.732.633 1.792 1.157 3.182 1.572V5.778c-1.317.073-2.365.464-3.145 1.17C3.779 7.657 3.4 8.644 3.4 9.912zm6.034 16.42c1.341-.122 2.39-.585 3.146-1.39.78-.804 1.17-1.78 1.17-2.925 0-1.219-.378-2.145-1.134-2.78-.731-.658-1.792-1.182-3.182-1.572v8.667z"/></svg><svg viewBox="0 0 20 18" id="facebook" xmlns="http://www.w3.org/2000/svg"><path d="M10.671 18H1.613c-.576 0-1.043-.445-1.043-.994V.993C.57.445 1.037 0 1.613 0h16.825c.577 0 1.044.445 1.044.993v16.014c0 .548-.467.993-1.044.993h-4.82v-6.97h2.46l.367-2.717H13.62V6.578c0-.786.23-1.322 1.414-1.322h1.512v-2.43a21.217 21.217 0 00-2.203-.107c-2.179 0-3.67 1.266-3.67 3.59v2.004H8.206v2.716h2.464V18z"/></svg><svg viewBox="0 0 20 11" id="googlePlus" xmlns="http://www.w3.org/2000/svg"><path fill-rule="evenodd" clip-rule="evenodd" d="M9.607 6.586L6.36 6.59V4.411h5.769C12.53 7.047 11.319 11 6.359 11 3.043 11 .354 8.538.354 5.5S3.043 0 6.36 0c1.556 0 2.975.542 4.042 1.432-.827.715-1.092.987-1.318 1.219-.117.12-.223.23-.392.384-.617-.467-1.29-.802-2.332-.802-1.971 0-3.51 1.463-3.51 3.267 0 1.804 1.539 3.267 3.51 3.267 1.947 0 2.738-.769 3.247-2.18zm7.577-3.972V4.52h2.081v1.36h-2.081v1.96h-1.487V5.88h-2.141V4.52h2.14V2.614h1.488z"/></svg><svg viewBox="0 0 205 54" id="hizxer" xmlns="http://www.w3.org/2000/svg"><path d="M10.336 52.608H0V.962h10.336v20.673h20.637V.962H41.31v51.646H30.973V31.971H10.336v20.637zm49.45 0H49.88V14.036h9.905v38.572zm37.636 0H65.26l16.243-28.704H65.26v-9.796h32.162L81.179 42.812h16.243v9.796zm40.985 0h-12.029l-7.671-11.813-7.743 11.813h-12.03l14.083-19.772-14.082-19.017h12.029l7.743 11.057 7.671-11.057h12.029l-14.118 19.017 14.118 19.772z"/><path d="M155.623 43.172c.384.12.768.204 1.152.252.384.024.769.036 1.153.036.96 0 1.885-.132 2.773-.396a10.09 10.09 0 002.485-1.117 9.538 9.538 0 003.602-4.178l7.203 7.24a19.053 19.053 0 01-3.17 3.493 19.176 19.176 0 01-3.853 2.63 18.28 18.28 0 01-4.358 1.62 18.95 18.95 0 01-4.682.576c-2.713 0-5.27-.504-7.671-1.512a19.591 19.591 0 01-6.267-4.214c-1.777-1.8-3.182-3.938-4.214-6.41-1.032-2.498-1.549-5.235-1.549-8.212 0-3.05.517-5.835 1.549-8.356s2.437-4.67 4.214-6.447a19.393 19.393 0 016.267-4.141c2.401-.985 4.958-1.477 7.671-1.477a19.474 19.474 0 019.076 2.233 19.278 19.278 0 013.889 2.665 19.053 19.053 0 013.17 3.494l-18.44 22.221zm5.042-20.277a5.66 5.66 0 00-1.369-.324 12.4 12.4 0 00-1.368-.072 9.76 9.76 0 00-3.818.757 9.054 9.054 0 00-3.097 2.088c-.865.913-1.549 2.017-2.053 3.314-.504 1.272-.756 2.713-.756 4.322 0 .36.012.768.036 1.224.048.456.108.925.18 1.405.096.456.204.9.324 1.332.12.432.276.817.468 1.153l11.453-15.199zm28.2 29.713h-9.832V14.036h2.377l3.241 4.574a16.91 16.91 0 015.403-3.314 16.982 16.982 0 016.266-1.188H205v9.796h-8.68a7.438 7.438 0 00-2.917.576 7.366 7.366 0 00-2.377 1.585 7.367 7.367 0 00-1.585 2.377 7.443 7.443 0 00-.576 2.917v21.25z"/></svg><svg viewBox="0 0 45 41" id="idea" xmlns="http://www.w3.org/2000/svg"><path d="M22.498.167h-.043a14.112 14.112 0 00-10.04 4.16 14.156 14.156 0 00-4.183 10.084 14.13 14.13 0 003.646 9.486c1.458 1.616 2.26 3.769 2.26 6.063a4.505 4.505 0 002.689 4.113v1.207a4.892 4.892 0 004.885 4.886h1.526a4.892 4.892 0 004.886-4.886v-1.207a4.505 4.505 0 002.688-4.113c0-2.294.802-4.445 2.26-6.064a14.132 14.132 0 003.646-9.485 14.16 14.16 0 00-4.183-10.083A14.127 14.127 0 0022.498.167zm.739 37.283H21.71a2.173 2.173 0 01-2.169-2.17v-.818h5.866v.818a2.175 2.175 0 01-2.17 2.17zm7.819-15.371c-1.911 2.115-2.963 4.914-2.963 7.88 0 .986-.8 1.788-1.787 1.788h-7.668a1.79 1.79 0 01-1.787-1.787c0-2.967-1.052-5.765-2.963-7.881a11.428 11.428 0 01-2.944-7.668c0-3.083 1.202-5.98 3.385-8.162a11.43 11.43 0 018.161-3.365c3.064 0 5.947 1.195 8.124 3.365a11.462 11.462 0 013.384 8.162 11.417 11.417 0 01-2.942 7.668z"/><path d="M20.238 5.725c-2.917.75-5.318 2.992-6.271 5.856a1.361 1.361 0 001.288 1.788c.568 0 1.1-.36 1.288-.93a6.3 6.3 0 014.368-4.082 1.36 1.36 0 00.977-1.653 1.364 1.364 0 00-1.65-.98zm-15.68-.453a1.356 1.356 0 00-1.887.354 1.359 1.359 0 00.355 1.887l2.036 1.393a1.36 1.36 0 001.532-2.243L4.558 5.272zm.592 9.403c0-.75-.607-1.358-1.357-1.358H1.357a1.358 1.358 0 000 2.715h2.435a1.358 1.358 0 001.359-1.357zm-.088 5.77l-2.036 1.391a1.357 1.357 0 001.532 2.243l2.036-1.39a1.357 1.357 0 00.355-1.887 1.355 1.355 0 00-1.887-.357zM39.12 9.142c.265 0 .532-.077.765-.237l2.037-1.392a1.358 1.358 0 00-1.533-2.241l-2.036 1.392a1.358 1.358 0 00.768 2.478zm4.47 4.175h-2.435a1.358 1.358 0 000 2.715h2.435a1.358 1.358 0 000-2.715zm-3.705 7.129a1.359 1.359 0 00-1.532 2.241l2.036 1.39a1.358 1.358 0 001.532-2.243l-2.036-1.388z"/></svg><svg viewBox="0 0 20 18" id="instagram" xmlns="http://www.w3.org/2000/svg"><path fill-rule="evenodd" clip-rule="evenodd" d="M9.592 0c-2.568 0-2.89.01-3.898.054C4.687.098 4 .25 3.398.473a4.658 4.658 0 00-1.675 1.038 4.396 4.396 0 00-1.09 1.594C.399 3.677.239 4.33.193 5.289.147 6.25.136 6.556.136 9s.011 2.75.057 3.71c.046.959.206 1.613.44 2.185a4.396 4.396 0 001.09 1.595c.526.5 1.053.808 1.675 1.038.602.222 1.29.374 2.296.418 1.008.044 1.33.054 3.898.054 2.569 0 2.89-.01 3.9-.054 1.006-.044 1.693-.196 2.295-.419a4.666 4.666 0 001.675-1.038 4.39 4.39 0 001.09-1.594c.234-.572.394-1.226.44-2.184.046-.96.057-1.267.057-3.711s-.011-2.75-.057-3.71c-.046-.959-.206-1.613-.44-2.185a4.396 4.396 0 00-1.09-1.594A4.665 4.665 0 0015.787.473C15.185.25 14.497.098 13.49.054 12.483.01 12.161 0 9.592 0zm0 1.622c2.525 0 2.824.009 3.822.052.921.04 1.422.187 1.755.31.442.163.757.358 1.088.673.33.315.536.615.707 1.035.13.317.284.794.326 1.671.045.95.055 1.234.055 3.637s-.01 2.688-.055 3.637c-.042.877-.196 1.354-.326 1.67a2.78 2.78 0 01-.707 1.036c-.331.315-.646.51-1.088.673-.333.123-.834.27-1.755.31-.997.043-1.296.052-3.822.052-2.525 0-2.824-.009-3.82-.052-.923-.04-1.423-.187-1.757-.31a2.948 2.948 0 01-1.087-.673 2.78 2.78 0 01-.707-1.035c-.13-.317-.284-.794-.326-1.671-.045-.95-.055-1.234-.055-3.637s.01-2.688.055-3.637c.042-.877.196-1.354.326-1.67.171-.421.376-.72.707-1.036.331-.315.646-.51 1.087-.673.334-.123.834-.27 1.756-.31.997-.043 1.296-.052 3.821-.052zM4.736 9c0-2.552 2.175-4.622 4.856-4.622 2.682 0 4.856 2.07 4.856 4.622 0 2.553-2.174 4.622-4.856 4.622-2.681 0-4.856-2.07-4.856-4.622zm4.856 3c-1.74 0-3.152-1.343-3.152-3s1.412-3 3.152-3c1.741 0 3.152 1.343 3.152 3s-1.41 3-3.152 3zm5.048-6.724c.627 0 1.135-.484 1.135-1.08 0-.597-.508-1.08-1.135-1.08s-1.135.483-1.135 1.08c0 .596.508 1.08 1.135 1.08z"/></svg><svg viewBox="0 0 16 20" id="location" xmlns="http://www.w3.org/2000/svg"><path fill-rule="evenodd" clip-rule="evenodd" d="M.804 7c0-3.87 3.289-7 7.355-7 4.066 0 7.355 3.13 7.355 7 0 4.17-4.644 9.92-6.546 12.11-.42.48-1.187.48-1.607 0C5.448 16.92.804 11.17.804 7zm4.728 0c0 1.38 1.177 2.5 2.627 2.5 1.45 0 2.627-1.12 2.627-2.5S9.609 4.5 8.159 4.5C6.71 4.5 5.532 5.62 5.532 7z"/></svg><svg viewBox="0 0 205 57" id="logo" xmlns="http://www.w3.org/2000/svg"><path d="M10.336 55.608H0V3.962h10.336v20.673h20.637V3.962H41.31v51.646H30.973V34.971H10.336v20.637zm49.45 0H49.88V17.036h9.905v38.572zm37.636 0H65.26l16.243-28.704H65.26v-9.796h32.162L81.179 45.812h16.243v9.796zm40.985 0h-12.029l-7.671-11.813-7.743 11.813h-12.03l14.083-19.772-14.082-19.017h12.029l7.743 11.057 7.671-11.057h12.029l-14.118 19.017 14.118 19.772z"/><path d="M155.623 46.172c.384.12.768.204 1.152.252.384.024.769.036 1.153.036.96 0 1.885-.132 2.773-.396a10.09 10.09 0 002.485-1.117 9.538 9.538 0 003.602-4.178l7.203 7.24a19.053 19.053 0 01-3.17 3.493 19.176 19.176 0 01-3.853 2.63 18.28 18.28 0 01-4.358 1.62 18.95 18.95 0 01-4.682.576c-2.713 0-5.27-.504-7.671-1.512a19.591 19.591 0 01-6.267-4.214c-1.777-1.8-3.182-3.938-4.214-6.41-1.032-2.498-1.549-5.235-1.549-8.212 0-3.05.517-5.835 1.549-8.356s2.437-4.67 4.214-6.447a19.393 19.393 0 016.267-4.142c2.401-.984 4.958-1.476 7.671-1.476 1.608 0 3.181.192 4.718.576 1.536.384 2.989.936 4.358 1.657a19.278 19.278 0 013.889 2.665 19.053 19.053 0 013.17 3.494l-18.44 22.221zm5.042-20.277a5.66 5.66 0 00-1.369-.324 12.4 12.4 0 00-1.368-.072 9.76 9.76 0 00-3.818.757 9.054 9.054 0 00-3.097 2.088c-.865.913-1.549 2.017-2.053 3.314-.504 1.272-.756 2.713-.756 4.322 0 .36.012.768.036 1.224.048.456.108.925.18 1.405.096.456.204.9.324 1.332.12.432.276.817.468 1.153l11.453-15.199zm28.2 29.713h-9.832V17.036h2.377l3.241 4.573a16.91 16.91 0 015.403-3.313 16.982 16.982 0 016.266-1.188H205v9.796h-8.68a7.438 7.438 0 00-2.917.576 7.366 7.366 0 00-2.377 1.585 7.383 7.383 0 00-1.585 2.377 7.443 7.443 0 00-.576 2.917v21.25zM60.938 9.112c.36-.792.54-1.645.54-2.557a6.02 6.02 0 00-.54-2.521 6.047 6.047 0 00-1.404-2.09A6.435 6.435 0 0057.409.54 6.106 6.106 0 0054.852 0c-.913 0-1.777.18-2.593.54a6.533 6.533 0 00-2.09 1.405 6.795 6.795 0 00-1.404 2.089 6.387 6.387 0 00-.504 2.52c0 .913.168 1.766.504 2.558.36.792.828 1.489 1.405 2.089a7.422 7.422 0 002.088 1.404 6.733 6.733 0 002.594.505c.912 0 1.764-.168 2.557-.505a7.276 7.276 0 002.125-1.404c.6-.6 1.068-1.297 1.404-2.09z"/></svg><svg version="1.1" id="mail" x="0" y="0" viewBox="0 0 32 32" xml:space="preserve" xmlns="http://www.w3.org/2000/svg"><style>.jst0{fill:none;stroke:#fff;stroke-width:2;stroke-linecap:round;stroke-linejoin:round;stroke-miterlimit:10}</style><path class="jst0" d="M25 27H7c-2.2 0-4-1.8-4-4V9c0-2.2 1.8-4 4-4h18c2.2 0 4 1.8 4 4v14c0 2.2-1.8 4-4 4z"/><path class="jst0" d="M3 10l13 8 13-8"/></svg><svg viewBox="0 0 31 34" id="microfon" xmlns="http://www.w3.org/2000/svg"><path d="M4.09 26.03h-.002l-.043-.001.004-.15-.004.15a3.279 3.279 0 01-3.194-3.36v-4.948c0-1.851 1.4-3.477 3.24-3.477h.324v-1.79c0-6.317 5.12-11.437 11.438-11.437 6.316 0 11.437 5.12 11.437 11.437v1.791c.939.026 1.726.556 2.276 1.281.564.743.892 1.706.892 2.59v4.951c0 .809-.28 1.502-.792 2.008-.496.491-1.2.796-2.047.869l-.712 1.05-.004.005a7.991 7.991 0 01-6.29 3.188 3.637 3.637 0 01-.97 1.857 4.23 4.23 0 01-2.956 1.273h-.003a4.11 4.11 0 01-4.11-4.07v-.003a4.07 4.07 0 018.033-.901 6.107 6.107 0 004.695-2.314h-.625a.507.507 0 01-.053-.004.902.902 0 01-.803-.985v-9.695c0-.265.077-.533.22-.74.144-.207.364-.36.643-.36h.721v-1.791a9.553 9.553 0 10-19.105 0v1.79h.72c.28 0 .5.154.644.362.143.206.22.474.22.739v9.695l-3.794.99zm0 0h2.938a.902.902 0 00.859-.944l-3.797.944zm14.19 4.695a1.95 1.95 0 00.551-1.47v-.011l-.551 1.481zm0 0l-.003.003m.003-.003l-.003.003m0 0c-.41.445-.987.7-1.592.704m1.592-.704l-1.592.704m0 0a2.266 2.266 0 01-2.227-2.189 2.187 2.187 0 014.373 0l-2.146 2.19zM2.735 22.68v-4.96c0-.855.592-1.593 1.355-1.593H6v8.017H4.092a1.395 1.395 0 01-1.358-1.428l-.15-.003.15.004.001-.04zm25.839.389c0 .473-.222.733-.497.883-.285.156-.632.194-.858.194h-1.514v-8.017h1.514c.36 0 .697.257.952.659.253.398.403.905.403 1.33v4.95z"/></svg><svg viewBox="0 0 32 32" id="optimering" xmlns="http://www.w3.org/2000/svg"><g clip-path="url(#la)"><path d="M31 22.333H1a1 1 0 01-1-1v-7a3.67 3.67 0 013.667-3.667h24.666A3.67 3.67 0 0132 14.333v7a1 1 0 01-1 1zm-29-2h28v-6a1.67 1.67 0 00-1.667-1.667H3.667A1.67 1.67 0 002 14.333v6z"/><path d="M28.333 32H3.667A3.67 3.67 0 010 28.334v-7a1 1 0 011-1h30a1 1 0 011 1v7A3.67 3.67 0 0128.333 32zM2 22.334v6C2 29.252 2.748 30 3.667 30h24.666c.919 0 1.667-.748 1.667-1.666v-6H2zM23.333 8a.999.999 0 01-.554-.168l-3-2a1 1 0 111.109-1.664l2.445 1.63 2.446-1.63a1 1 0 111.11 1.664l-3.001 2a.999.999 0 01-.555.168z"/><path d="M28.333 12.667H3.667A3.67 3.67 0 010 9V3.667A3.67 3.67 0 013.667 0h24.666A3.67 3.67 0 0132 3.667V9a3.67 3.67 0 01-3.667 3.667zM3.667 2A1.67 1.67 0 002 3.667V9a1.67 1.67 0 001.667 1.667h24.666A1.67 1.67 0 0030 9V3.667A1.67 1.67 0 0028.333 2H3.667z"/><path d="M16.333 12.667a1 1 0 01-1-1V1a1 1 0 012 0v10.667a1 1 0 01-1 1zm9 4.666A1.336 1.336 0 0124 16c0-.735.599-1.334 1.333-1.334.735 0 1.334.6 1.334 1.334 0 .735-.599 1.333-1.334 1.333zm0 10.667A1.336 1.336 0 0124 26.667c0-.735.599-1.334 1.333-1.334.735 0 1.334.6 1.334 1.334 0 .734-.599 1.333-1.334 1.333z"/></g><defs><clipPath id="la"><path d="M0 0h32v32H0z"/></clipPath></defs></svg><svg viewBox="0 0 40 41" id="pen" xmlns="http://www.w3.org/2000/svg"><g clip-path="url(#ma)"><path d="M35.833 20.583c-.69 0-1.25-.56-1.25-1.25C34.583 11.291 28.042 4.75 20 4.75S5.417 11.29 5.417 19.333a1.25 1.25 0 01-2.5 0C2.917 9.913 10.58 2.25 20 2.25c9.42 0 17.083 7.663 17.083 17.083 0 .69-.56 1.25-1.25 1.25zM5.417 6.833H1.25c-.69 0-1.25-.56-1.25-1.25V1.416C0 .727.56.167 1.25.167h4.167c.69 0 1.25.56 1.25 1.25v4.167c0 .69-.56 1.25-1.25 1.25zM2.5 4.333h1.667V2.666H2.5v1.667z"/><path d="M35.833 25.166a3.337 3.337 0 01-3.333-3.333 3.337 3.337 0 013.333-3.333 3.337 3.337 0 013.334 3.333 3.337 3.337 0 01-3.334 3.333zm0-4.166a.834.834 0 100 1.667.834.834 0 000-1.667zM34.167 4.75H5.833a1.25 1.25 0 010-2.5h28.334a1.25 1.25 0 010 2.5z"/><path d="M22.927 27.667a1.249 1.249 0 01-1.03-1.955l3.766-5.515L20 7.072l-5.663 13.125 3.766 5.515c.39.57.244 1.348-.326 1.736a1.247 1.247 0 01-1.737-.326l-4.155-6.084a1.249 1.249 0 01-.115-1.2l7.083-16.416c.395-.915 1.9-.915 2.295 0l7.084 16.416c.17.394.126.847-.115 1.2l-4.155 6.084a1.25 1.25 0 01-1.035.545z"/><path d="M27.082 40.166a1.252 1.252 0 01-1.239-1.084L24.37 28.027a.417.417 0 00-.413-.361h-7.915a.418.418 0 00-.414.361L14.155 39.08a1.261 1.261 0 01-1.405 1.075 1.252 1.252 0 01-1.075-1.404l1.473-11.054a2.932 2.932 0 012.894-2.532h7.915a2.925 2.925 0 012.89 2.53l1.475 11.055a1.25 1.25 0 01-1.24 1.416zM20 18.5c-.69 0-1.25-.56-1.25-1.25V4.75a1.25 1.25 0 012.5 0v12.5c0 .69-.56 1.25-1.25 1.25zM4.167 25.166a3.337 3.337 0 01-3.334-3.333A3.337 3.337 0 014.167 18.5 3.337 3.337 0 017.5 21.833a3.337 3.337 0 01-3.333 3.333zm0-4.166a.834.834 0 100 1.667.834.834 0 000-1.667zM38.75 6.833h-4.167c-.69 0-1.25-.56-1.25-1.25V1.416c0-.69.56-1.25 1.25-1.25h4.167c.69 0 1.25.56 1.25 1.25v4.167c0 .69-.56 1.25-1.25 1.25zm-2.917-2.5H37.5V2.666h-1.667v1.667z"/></g><defs><clipPath id="ma"><path transform="translate(0 .167)" d="M0 0h40v40H0z"/></clipPath></defs></svg><svg viewBox="0 0 62 41" id="people" xmlns="http://www.w3.org/2000/svg"><path d="M9.52 32.834a1.287 1.287 0 001.457-1.09v-.001a1.288 1.288 0 00-1.09-1.457 21.463 21.463 0 01-7.069-2.315 1.288 1.288 0 00-1.211 2.272 24.108 24.108 0 007.913 2.59zm42.07-1.09a1.287 1.287 0 001.456 1.091h.001a24.108 24.108 0 007.914-2.59 1.288 1.288 0 00.53-1.742 1.29 1.29 0 00-1.741-.53 21.455 21.455 0 01-7.07 2.314 1.288 1.288 0 00-1.09 1.457zm-12.1-9.98a1.285 1.285 0 001.781-.376 6.737 6.737 0 015.665-3.07 1.285 1.285 0 100-2.573 9.308 9.308 0 00-7.82 4.239 1.286 1.286 0 00.375 1.78z"/><path d="M41.626 10.323c0 4.335 3.66 7.995 7.996 7.995 4.334 0 7.994-3.66 7.994-7.995 0-4.334-3.66-7.994-7.994-7.994-4.336 0-7.996 3.66-7.996 7.994zm2.573 0c0-2.938 2.484-5.422 5.423-5.422 2.938 0 5.422 2.484 5.422 5.422 0 2.939-2.484 5.422-5.422 5.422-2.939 0-5.423-2.483-5.423-5.422z"/><path d="M59.069 25.083a1.285 1.285 0 102.573 0c0-5.147-4.189-9.336-9.337-9.336a1.285 1.285 0 100 2.572 6.772 6.772 0 016.764 6.764z"/><path d="M46.938 18.318h5.367a1.286 1.286 0 100-2.573h-5.367a1.285 1.285 0 100 2.573zm12.132 10.79a1.285 1.285 0 102.572 0v-4.025a1.285 1.285 0 10-2.573 0v4.025zm-43.384.894a1.285 1.285 0 102.572 0c0-5.21 4.238-9.447 9.448-9.447a1.285 1.285 0 100-2.572c-6.628 0-12.02 5.39-12.02 12.02z"/><path d="M27.706 20.555h7.156a1.285 1.285 0 100-2.572h-7.156a1.285 1.285 0 100 2.572zm-6.409.834a1.286 1.286 0 001.78.375 1.286 1.286 0 00.375-1.78 9.306 9.306 0 00-7.82-4.239 1.285 1.285 0 100 2.573 6.742 6.742 0 015.665 3.07zM15.686 35.37a1.285 1.285 0 102.572 0v-5.368a1.285 1.285 0 10-2.572 0v5.368z"/><path d="M21.052 10.323c0 5.547 4.685 10.232 10.232 10.232s10.232-4.685 10.232-10.232C41.516 4.777 36.83.092 31.284.092S21.052 4.777 21.052 10.323zm2.572 0c0-4.15 3.509-7.659 7.66-7.659 4.15 0 7.659 3.508 7.659 7.66 0 4.15-3.508 7.659-7.66 7.659-4.15 0-7.659-3.509-7.659-7.66z"/><path d="M44.31 30.002a1.285 1.285 0 102.572 0c0-6.627-5.391-12.02-12.02-12.02a1.285 1.285 0 100 2.573c5.21 0 9.447 4.238 9.447 9.447z"/><path d="M44.31 35.37a1.285 1.285 0 102.572 0v-5.368a1.285 1.285 0 10-2.573 0v5.368z"/><path d="M16.366 36.505a31.683 31.683 0 0014.918 3.736 31.705 31.705 0 0014.918-3.736 1.289 1.289 0 00.53-1.741 1.29 1.29 0 00-1.741-.53 29.075 29.075 0 01-27.413 0 1.288 1.288 0 00-1.212 2.272zM4.951 10.323c0 4.335 3.66 7.995 7.995 7.995 4.334 0 7.994-3.66 7.994-7.995 0-4.334-3.66-7.994-7.994-7.994-4.335 0-7.995 3.66-7.995 7.994zm2.573 0c0-2.938 2.483-5.422 5.422-5.422 2.938 0 5.422 2.484 5.422 5.422 0 2.939-2.484 5.422-5.422 5.422-2.939 0-5.422-2.483-5.422-5.422z"/><path d="M10.263 18.32a1.285 1.285 0 100-2.574c-5.147 0-9.337 4.189-9.337 9.337a1.285 1.285 0 102.573 0c0-3.73 3.034-6.765 6.764-6.764z"/><path d="M10.263 18.318h5.367a1.285 1.285 0 100-2.573h-5.367a1.285 1.285 0 100 2.573zM.926 29.108a1.285 1.285 0 102.573 0v-4.025a1.285 1.285 0 10-2.573 0v4.025z"/></svg><svg viewBox="0 0 20 18" id="phone" xmlns="http://www.w3.org/2000/svg"><path fill-rule="evenodd" clip-rule="evenodd" d="M17.756 12.26l-2.67-.29c-.64-.07-1.27.14-1.722.57l-1.934 1.84c-2.973-1.44-5.41-3.75-6.924-6.59L6.45 5.94c.452-.43.673-1.03.599-1.64l-.305-2.52C6.618.77 5.725.01 4.654.01H2.835C1.648.01.66.95.734 2.08c.557 8.54 7.733 15.36 16.696 15.89 1.187.07 2.175-.87 2.175-2v-1.73c.01-1.01-.788-1.86-1.85-1.98z"/></svg><svg viewBox="0 0 20 18" id="pinterest" xmlns="http://www.w3.org/2000/svg"><path d="M10.243 0C5.021 0 .786 4.03.786 9c0 3.685 2.329 6.851 5.662 8.243-.027-.627-.005-1.383.163-2.067l1.217-4.903s-.302-.575-.302-1.425c0-1.333.813-2.33 1.824-2.33.86 0 1.276.616 1.276 1.352 0 .823-.552 2.053-.836 3.193-.236.956.503 1.734 1.493 1.734 1.791 0 2.998-2.19 2.998-4.785 0-1.972-1.396-3.448-3.935-3.448-2.868 0-4.655 2.035-4.655 4.308 0 .786.243 1.338.623 1.766.176.198.2.276.136.503-.045.164-.15.564-.193.721-.063.228-.256.31-.472.226-1.322-.513-1.937-1.89-1.937-3.439 0-2.556 2.265-5.623 6.757-5.623 3.611 0 5.988 2.488 5.988 5.156 0 3.531-2.062 6.169-5.103 6.169-1.02 0-1.981-.525-2.31-1.121 0 0-.55 2.073-.665 2.473-.2.694-.593 1.388-.952 1.928.85.239 1.75.369 2.68.369 5.222 0 9.456-4.03 9.456-9s-4.234-9-9.456-9z"/></svg><svg viewBox="0 0 15 17" id="polygon" xmlns="http://www.w3.org/2000/svg"><path d="M14.083 8.75l-13.5 7.794V.956l13.5 7.794z"/></svg><svg viewBox="0 0 18 32" id="prisvenlige" xmlns="http://www.w3.org/2000/svg"><path d="M17.079 21.833c0 1.17-.293 2.292-.878 3.365-.585 1.072-1.463 1.962-2.633 2.67-1.146.682-2.523 1.072-4.133 1.17V32H7.68v-2.962c-2.267-.195-4.108-.902-5.522-2.121C.768 25.697.06 24.125.037 22.199h3.547c.098 1.048.488 1.95 1.17 2.706.683.756 1.658 1.22 2.926 1.39v-9.106c-1.707-.464-3.06-.902-4.06-1.317-.999-.415-1.852-1.085-2.56-2.011C.355 12.934 0 11.678 0 10.094c0-2 .695-3.645 2.085-4.937 1.414-1.293 3.279-2 5.595-2.122V0h1.755v3.035c2.122.171 3.816.83 5.084 1.975 1.292 1.146 2.036 2.658 2.23 4.535h-3.547c-.122-.853-.512-1.633-1.17-2.34-.634-.707-1.5-1.159-2.597-1.354v8.887c1.683.44 3.024.866 4.023 1.28 1 .415 1.853 1.085 2.56 2.012.707.926 1.06 2.194 1.06 3.803zM3.4 9.911c0 1.219.366 2.145 1.097 2.78.732.633 1.792 1.157 3.182 1.572V5.778c-1.317.073-2.365.464-3.145 1.17C3.779 7.657 3.4 8.644 3.4 9.912zm6.034 16.42c1.341-.122 2.39-.585 3.146-1.39.78-.804 1.17-1.78 1.17-2.925 0-1.219-.378-2.145-1.134-2.78-.731-.658-1.792-1.182-3.182-1.572v8.667z"/></svg><svg viewBox="0 0 40 41" id="programming" xmlns="http://www.w3.org/2000/svg"><g clip-path="url(#sa)"><path d="M37.083 30.166H2.917A2.92 2.92 0 010 27.25V6.416A2.92 2.92 0 012.917 3.5h34.166A2.92 2.92 0 0140 6.416V27.25a2.92 2.92 0 01-2.917 2.916zM2.917 6a.417.417 0 00-.417.416V27.25c0 .23.187.416.417.416h34.166c.23 0 .417-.186.417-.416V6.416A.417.417 0 0037.083 6H2.917zm24.166 30.833H12.917a1.25 1.25 0 010-2.5h14.166a1.25 1.25 0 010 2.5z"/><path d="M20 36.833c-.69 0-1.25-.56-1.25-1.25v-6.666a1.25 1.25 0 012.5 0v6.666c0 .69-.56 1.25-1.25 1.25zM11.25 23.5a1.25 1.25 0 01-.883-2.135l4.531-4.532-4.531-4.533a1.25 1.25 0 111.768-1.769l5.417 5.417a1.25 1.25 0 010 1.768l-5.417 5.417a1.247 1.247 0 01-.885.367zm17.5 0h-7.5a1.25 1.25 0 010-2.5h7.5a1.25 1.25 0 010 2.5z"/></g><defs><clipPath id="sa"><path transform="translate(0 .167)" d="M0 0h40v40H0z"/></clipPath></defs></svg><svg viewBox="0 0 19 18" id="rss" xmlns="http://www.w3.org/2000/svg"><path fill-rule="evenodd" clip-rule="evenodd" d="M18.915 18h-3.602c0-8.035-6.868-14.572-15.31-14.572V0c10.428 0 18.912 8.075 18.912 18zM.003 15.429c0-1.42 1.21-2.572 2.702-2.572s2.702 1.152 2.702 2.572c0 1.42-1.21 2.571-2.702 2.571S.003 16.849.003 15.429zM9.009 18h3.602c0-6.617-5.656-12-12.608-12v3.429c4.966 0 9.006 3.845 9.006 8.571z"/></svg><svg viewBox="0 0 31 34" id="strategi" xmlns="http://www.w3.org/2000/svg"><path d="M4.09 25.863h-.002l-.043-.001.004-.15-.004.15a3.279 3.279 0 01-3.194-3.359v-4.948c0-1.852 1.4-3.477 3.24-3.477h.324v-1.79C4.415 5.97 9.535.85 15.853.85c6.316 0 11.437 5.12 11.437 11.437v1.792c.939.025 1.726.555 2.276 1.28.564.744.892 1.706.892 2.591v4.95c0 .81-.28 1.503-.792 2.008-.496.491-1.2.796-2.047.87l-.712 1.049-.004.006a7.992 7.992 0 01-6.29 3.188 3.634 3.634 0 01-.97 1.856 4.23 4.23 0 01-2.956 1.273h-.003a4.11 4.11 0 01-4.11-4.07v-.002a4.07 4.07 0 018.033-.902 6.108 6.108 0 004.695-2.313h-.625a.902.902 0 01-.856-.99v-9.695c0-.264.077-.533.22-.739.144-.208.364-.361.643-.361h.721v-1.79a9.553 9.553 0 10-19.105 0v1.79h.72c.28 0 .5.153.644.361.143.206.22.475.22.74v9.694l-3.794.99zm0 0h2.938a.902.902 0 00.859-.944l-3.797.944zm14.19 4.695c.382-.39.582-.924.551-1.47v-.011l-.551 1.481zm0 0l-.003.004m.003-.004l-.003.004m0 0c-.41.445-.987.7-1.592.704m1.592-.704l-1.592.704m0 0a2.266 2.266 0 01-2.227-2.19 2.187 2.187 0 014.373.001l-2.146 2.189zm-13.95-8.754v-4.957c0-.856.592-1.593 1.355-1.593H6v8.017H4.092a1.395 1.395 0 01-1.358-1.428l-.15-.004.15.004.001-.039zm25.839.389c0 .474-.222.733-.497.883-.285.156-.632.195-.858.195h-1.514v-8.017h1.514c.36 0 .697.256.952.658.253.398.403.905.403 1.33v4.951z"/></svg><svg viewBox="0 0 20 15" id="twitter" xmlns="http://www.w3.org/2000/svg"><path d="M19.615 1.776a7.876 7.876 0 01-2.228.596A3.812 3.812 0 0019.094.277c-.75.434-1.58.749-2.466.918A3.916 3.916 0 0013.796 0c-2.141 0-3.878 1.696-3.878 3.787 0 .296.033.585.1.862A11.104 11.104 0 012.019.691a3.712 3.712 0 00-.525 1.906c0 1.313.685 2.472 1.726 3.152a3.956 3.956 0 01-1.758-.473v.047c0 1.835 1.338 3.366 3.114 3.713a3.876 3.876 0 01-1.022.133 3.98 3.98 0 01-.73-.067c.493 1.504 1.925 2.599 3.623 2.628a7.905 7.905 0 01-4.818 1.622c-.313 0-.623-.017-.926-.052A11.198 11.198 0 006.65 15c7.138 0 11.04-5.77 11.04-10.774 0-.164-.004-.329-.01-.49a7.747 7.747 0 001.934-1.96z"/></svg><svg viewBox="0 0 28 33" id="vector" xmlns="http://www.w3.org/2000/svg"><path d="M19.27 17.485v.006h5.283l-2.946-4.425-2.338 4.419zm0 0h-.15m.15 0h-.15m0 0a2.325 2.325 0 01-2.325-2.325V7.558m2.324 9.927l-2.324-9.927m0 0h7.758l-2.946 4.425-4.812-4.425zm10.393 10.364v-.001l-3.6-5.4 3.599-5.398a.961.961 0 00.047-1 .97.97 0 00-.857-.515H16.68a4.282 4.282 0 00-4.16-3.298H5.578V1.305a.975.975 0 00-1.95 0V30.68H1.306a.975.975 0 000 1.95h6.598a.975.975 0 000-1.95H5.578V16.136h9.382a4.282 4.282 0 004.16 3.3h7.257a.975.975 0 00.812-1.512zM5.578 4.259h6.943a2.325 2.325 0 012.324 2.324v7.603H5.578V4.259zm16.03 7.724a.978.978 0 000 1.083v-1.083z"/></svg><svg viewBox="0 0 20 13" id="youtube" xmlns="http://www.w3.org/2000/svg"><path fill-rule="evenodd" clip-rule="evenodd" d="M18.891.97c.567.56.752 1.834.752 1.834s.189 1.496.189 2.992v1.402c0 1.496-.19 2.991-.19 2.991s-.184 1.274-.75 1.835c-.649.663-1.367.732-1.774.77l-.122.013c-2.646.187-6.62.193-6.62.193s-4.918-.044-6.43-.186a4.311 4.311 0 00-.258-.035c-.479-.056-1.231-.144-1.828-.755-.567-.561-.751-1.835-.751-1.835s-.19-1.495-.19-2.991V5.796c0-1.496.19-2.992.19-2.992s.184-1.273.75-1.834C2.51.305 3.23.238 3.636.2l.12-.013C6.402 0 10.372 0 10.372 0h.008s3.97 0 6.616.187l.12.012c.407.039 1.126.106 1.775.77zM8.422 3.704l.001 5.193 5.11-2.587-5.11-2.606z"/></svg></svg>